<?xml version="1.0" encoding="utf-8"?>
<!-- Generator: Adobe Illustrator 27.7.0, SVG Export Plug-In . SVG Version: 6.00 Build 0)  -->
<svg version="1.1" id="Layer_1" xmlns="http://www.w3.org/2000/svg" xmlns:xlink="http://www.w3.org/1999/xlink" x="0px" y="0px"
	 viewBox="0 0 477.3 370" style="enable-background:new 0 0 477.3 370;" xml:space="preserve">
<style type="text/css">
	.st0{fill:#F9DEC5;}
	.st1{fill:#45719A;}
	.st2{fill:#375C7E;}
	.st3{fill:#EFCAAC;}
	.st4{fill:#F6DFC9;}
	.st5{fill:#D2A27C;}
	.st6{fill:#414042;}
	.st7{fill:#2D4C71;}
	.st8{fill:#E3E2D7;}
	.st9{fill:#5282BD;}
	.st10{fill:#864E2C;}
	.st11{fill:#B46651;}
	.st12{fill:#9C4E42;}
	.st13{fill:#18534E;}
	.st14{fill:#49A199;}
	.st15{opacity:0.51;fill:#456EA0;}
	.st16{fill:#7D8282;}
	.st17{fill:#9BA0A0;}
	.st18{fill:#BEC0C2;}
	.st19{fill:#3B5D6D;}
	.st20{opacity:0.5;fill:#ABAC98;}
	.st21{fill:#54564C;}
	.st22{fill:#507147;}
	.st23{fill:#5B895D;}
	.st24{fill:#8AB676;}
	.st25{fill:#EDEAD3;}
	.st26{fill:#E2DFCA;}
	.st27{fill:#BDBDAC;}
	.st28{fill:#72533D;}
	.st29{fill:#A4775A;}
	.st30{fill:#FFFAE3;}
	.st31{fill:#231F20;}
	.st32{fill:#4B517F;}
	.st33{fill:#808285;}
	.st34{fill:#ABAC98;}
	.st35{fill:#A6D17A;}
	.st36{fill:#B2B6B6;}
	.st37{fill:#B29E7A;}
	.st38{fill:#AFA0AB;}
	.st39{fill:#C1A280;}
	.st40{fill:#ADC1BD;}
	.st41{fill:#EBE9A2;}
	.st42{fill:#DBCA74;}
	.st43{fill:#84B5BC;}
	.st44{fill:#436A46;}
	.st45{fill:#D6DBDA;}
	.st46{fill:#838788;}
	.st47{fill:#507A52;}
	.st48{fill:#976B51;}
</style>
<g>
	<g>
		<path class="st0" d="M348.3,132.3H180.9c-14.5,0-26.3-11.8-26.3-26.3l0,0c0-14.5,11.8-26.3,26.3-26.3h167.4
			c14.5,0,26.3,11.8,26.3,26.3l0,0C374.6,120.5,362.8,132.3,348.3,132.3z"/>
		<path class="st0" d="M385,263.3H135.2c-14.5,0-26.3-11.8-26.3-26.3l0,0c0-14.5,11.8-26.3,26.3-26.3H385
			c14.5,0,26.3,11.8,26.3,26.3l0,0C411.2,251.5,399.5,263.3,385,263.3z"/>
		<path class="st0" d="M439,354.3H38.2c-14.5,0-26.3-11.8-26.3-26.3v0c0-14.5,11.8-26.3,26.3-26.3H439c14.5,0,26.3,11.8,26.3,26.3v0
			C465.3,342.6,453.6,354.3,439,354.3z"/>
		<path class="st0" d="M359.5,204.6H69.6c-6.3,0-11.5-5.1-11.5-11.5V193c0-6.3,5.1-11.5,11.5-11.5h289.9c6.3,0,11.5,5.1,11.5,11.5
			v0.2C371,199.5,365.9,204.6,359.5,204.6z"/>
		<path class="st0" d="M262.4,71.8h-66c-6.3,0-11.5-5.1-11.5-11.5v-0.2c0-6.3,5.1-11.5,11.5-11.5h66c6.3,0,11.5,5.1,11.5,11.5v0.2
			C273.9,66.7,268.8,71.8,262.4,71.8z"/>
		<path class="st0" d="M423.5,296.4H193.4c-8,0-14.5-6.5-14.5-14.5v0c0-8,6.5-14.5,14.5-14.5h230.1c8,0,14.5,6.5,14.5,14.5v0
			C438,289.9,431.5,296.4,423.5,296.4z"/>
		<path class="st0" d="M158.8,296.4H50.5c-8,0-14.5-6.5-14.5-14.5v0c0-8,6.5-14.5,14.5-14.5h108.3c8,0,14.5,6.5,14.5,14.5v0
			C173.3,289.9,166.8,296.4,158.8,296.4z"/>
		
			<ellipse transform="matrix(0.9998 -2.111443e-02 2.111443e-02 0.9998 -3.9899 8.1898)" class="st0" cx="385.8" cy="193" rx="11.9" ry="11.9"/>
		<circle class="st0" cx="231.4" cy="28.8" r="11.9"/>
		
			<ellipse transform="matrix(0.2464 -0.9692 0.9692 0.2464 -11.0208 197.7992)" class="st0" cx="121.7" cy="106" rx="22.9" ry="22.9"/>
		<circle class="st0" cx="77.8" cy="238" r="23.4"/>
		<path class="st0" d="M330.5,176.8H120.6c-10.7,0-19.4-8.7-19.4-19.4l0,0c0-10.7,8.7-19.4,19.4-19.4h209.9
			c10.7,0,19.4,8.7,19.4,19.4l0,0C349.8,168.1,341.2,176.8,330.5,176.8z"/>
		<circle class="st0" cx="79.9" cy="158.1" r="9.8"/>
		<circle class="st0" cx="370.1" cy="158.1" r="16.7"/>
		<path class="st0" d="M306.8,60.2c0,7.3-5.9,13.3-13.3,13.3c-7.3,0-13.3-5.9-13.3-13.3c0-7.3,5.9-13.3,13.3-13.3
			C300.8,47,306.8,52.9,306.8,60.2z"/>
	</g>
	<g>
		<g>
			<g>
				<path class="st1" d="M212.1,249.8c0,0-25,4.5-33.7,24.4c-7.8,18-21.5,68.3-21.5,68.3h31.9c0,0,12.6-53.7,15-62.4
					C206.2,271.4,212.1,249.8,212.1,249.8z"/>
				<path class="st1" d="M269.7,250.5c0,0,26.1,3.7,34.8,23.7c7.8,18,21.5,68.3,21.5,68.3H294c0,0-12.6-53.7-15-62.4
					C276.7,271.4,269.7,250.5,269.7,250.5z"/>
				<path class="st2" d="M281.6,273.8c-0.7-6.5-1.9-12.8-3.6-19c-8.6-8.3-29.8-9.3-29.8-9.3h-5h-5.1h-5c0,0-21.2,1-29.8,9.3
					c-1.7,6.2-2.9,12.6-3.6,19c-1.5,13.6-0.9,27.3,0.5,40.8c1,9.3,2.4,18.6,3.8,27.9h34h5.1h34c1.5-9.3,2.9-18.5,3.8-27.9
					C282.5,301.1,283.1,287.4,281.6,273.8z"/>
				<path class="st3" d="M256.8,248.8c-4.1-2.1-2.2-23.1-2.2-23.1h-26.5c0,0,1.9,21-2.2,23.1c-4.1,2.1-6,1.5-4.1,7.9
					c1.6,5.2,7.7,7.8,16.3,8.4c0,0,2.1,0.1,3.2,0.1c1,0,3.2-0.1,3.2-0.1c8.7-0.6,14.7-3.2,16.3-8.4
					C262.9,250.4,260.9,251,256.8,248.8z"/>
				<path class="st3" d="M279.1,204.5c-1.4-1.8-5-3.3-6.8-2.2c-1,0.6-1.1,1.6-1.8,2.5c-1.2,0.9-1.5,3.4-2.1,4.8
					c-0.9,1.8-1.5,3.8-2.1,5.8c-0.5,1.7-0.9,3.4-1.2,5.2c-0.2,0.9-1,3.8,0,4.4c0.3,0.2,0.7,0.2,1,0.1c0.3-0.1,0.7-0.2,1-0.3
					c0.8-0.3,1.7-0.4,2.5-0.6c2.6-0.7,3.6-3.1,4.9-5.3c1.3-2.3,2.6-4.6,3.8-6.9C279.5,209.8,280.8,206.8,279.1,204.5z"/>
				<path class="st4" d="M274,174.2c-2-8.2-6.1-15.7-13.5-20.2c-14.1-8.5-39-4.8-47.5,10.4c-1.7,3.1-3.3,6.4-4.3,9.8
					c-4.2,13.3,0.2,29.7,4.1,42.6c3.1,10.1,8.6,19.9,18.9,23.9c23.7,9.2,37.9-14.9,41.6-34.5C275.3,195.9,276.5,184.6,274,174.2z"/>
				<path class="st4" d="M244,223.6c-0.6,0.5-1.3,1-2.1,1.1c-0.1,0-0.3,0.1-0.4,0.1c-0.1,0-0.3-0.1-0.4-0.1
					c-0.8-0.1-1.5-0.6-2.1-1.1c-0.5-0.3-1.1-0.5-1.7-0.8c0.6,0.7,1,1.5,1.7,2c0.7,0.5,1.5,0.8,2.4,0.8c0,0,0,0,0,0
					c0.1,0,0.1,0,0.2,0c0.1,0,0.1,0,0.2,0c0,0,0,0,0,0c0.9,0,1.7-0.3,2.4-0.8c0.7-0.6,1.1-1.3,1.7-2
					C245,223.1,244.5,223.3,244,223.6z"/>
				<g>
					<path class="st3" d="M202.5,342.6c0.2-0.3,0.3-0.6,0.3-1c-0.2-0.8-1.2-1.2-1.9-1.5c-2.8-1.5-5.4-3.2-7.7-5.3
						c-1-0.9-1.9-2.1-3-2.9c-1.2-0.8-2.8-0.9-4.1-1.1c-3.3-0.7-6.6-1.4-9.9-1.9c-2.8-0.4-5.8-1.1-8.5-0.2c-2.8,0.9-4.9,3-6.9,5
						c-2.1,2.1-4,4.4-5,7.2c-0.1,0.1-0.6,1.1-0.9,2H202.5z"/>
					<path class="st5" d="M172.4,342.6c0.4-0.8,0.9-1.5,1.4-2.3c0.9-2.4,2.3-4.7,4.1-6.4c1.6-1.5,3.5-2.6,5.7-2.9
						c1.2-0.2,2.5-0.2,3.7,0c1,0.2,1.8,0.6,2.7,0.9c0,0,0.1,0,0.1-0.1c-0.3-0.9-1.4-1.1-2.2-1.3c-1.2-0.3-2.4-0.3-3.6-0.2
						c-2.3,0.3-4.4,1.2-6.2,2.7C175.2,335.4,173.4,339,172.4,342.6L172.4,342.6z"/>
					<path class="st5" d="M181.5,342.6c0.1-0.1,0.1-0.2,0.2-0.2c0.6-0.7,1.1-1.5,1.8-2.2c0.6-0.6,1.3-1.2,2-1.8
						c0.7-0.5,1.7-1.2,2.6-1c0.1,0,0.3-0.2,0.1-0.2c-0.4-0.1-0.7-0.2-1.2-0.1c-0.5,0.1-0.9,0.3-1.3,0.6c-0.9,0.5-1.6,1.2-2.3,1.8
						c-0.7,0.6-1.2,1.3-1.8,2c-0.2,0.3-0.4,0.5-0.7,0.8c0,0.1,0,0.2-0.1,0.3H181.5z"/>
					<path class="st5" d="M159.1,342.6c0.1-0.9,0.3-1.8,0.6-2.6c0-0.1,0-0.1,0-0.2c0.3-2.2,1.3-4.3,2.5-6.1c1.5-2.2,3.7-4.3,6.3-5.1
						c3-0.9,5.7,0.2,8.6,0.6c-2.2,0.5-4.3,1.8-6,3.1c-3.1,2.5-5.8,6.2-6.5,10.2h0.3c0.1-0.2,0.2-0.5,0.3-0.7c0.3-0.8,0.6-1.6,1-2.3
						c1.1-2.5,2.9-4.8,5-6.5c1.6-1.3,3.5-2.6,5.6-3.2c2.2-0.6,5.1-0.4,7.1,0.6c0.1,0,0.3-0.1,0.2-0.2c-0.7-0.7-1.8-0.9-2.8-1.1
						c-1.2-0.3-2.5-0.3-3.7-0.1c0,0-0.1,0-0.1,0c0,0,0-0.1,0-0.1c-2.1-1.2-4.9-1.7-7.3-1.4c-2.4,0.3-4.5,1.5-6.3,3.1
						c-2.9,2.7-4.8,6.5-5.2,10.5c0,0.3-0.1,0.8-0.1,1.4H159.1z"/>
				</g>
				<g>
					<path class="st3" d="M280.4,342.6c-0.2-0.3-0.3-0.6-0.3-1c0.2-0.8,1.2-1.2,1.9-1.5c2.8-1.5,5.4-3.2,7.7-5.3
						c1-0.9,1.9-2.1,3-2.9c1.2-0.8,2.8-0.9,4.1-1.1c3.3-0.7,6.6-1.4,9.9-1.9c2.8-0.4,5.8-1.1,8.5-0.2c2.8,0.9,4.9,3,6.9,5
						c2.1,2.1,4,4.4,5,7.2c0.1,0.1,0.6,1.1,0.9,2H280.4z"/>
					<path class="st5" d="M310.5,342.6c-0.4-0.8-0.9-1.5-1.4-2.3c-0.9-2.4-2.3-4.7-4.1-6.4c-1.6-1.5-3.5-2.6-5.7-2.9
						c-1.2-0.2-2.5-0.2-3.7,0c-1,0.2-1.8,0.6-2.7,0.9c0,0-0.1,0-0.1-0.1c0.3-0.9,1.4-1.1,2.2-1.3c1.2-0.3,2.4-0.3,3.6-0.2
						c2.3,0.3,4.4,1.2,6.2,2.7C307.7,335.4,309.5,339,310.5,342.6L310.5,342.6z"/>
					<path class="st5" d="M301.4,342.6c-0.1-0.1-0.1-0.2-0.2-0.2c-0.6-0.7-1.1-1.5-1.8-2.2c-0.6-0.6-1.3-1.2-2-1.8
						c-0.7-0.5-1.7-1.2-2.6-1c-0.1,0-0.3-0.2-0.1-0.2c0.4-0.1,0.7-0.2,1.2-0.1c0.5,0.1,0.9,0.3,1.3,0.6c0.9,0.5,1.6,1.2,2.3,1.8
						c0.7,0.6,1.2,1.3,1.8,2c0.2,0.3,0.4,0.5,0.7,0.8c0,0.1,0,0.2,0.1,0.3H301.4z"/>
					<path class="st5" d="M323.8,342.6c-0.1-0.9-0.3-1.8-0.6-2.6c0-0.1,0-0.1,0-0.2c-0.3-2.2-1.3-4.3-2.5-6.1
						c-1.5-2.2-3.7-4.3-6.3-5.1c-3-0.9-5.7,0.2-8.6,0.6c2.2,0.5,4.3,1.8,6,3.1c3.1,2.5,5.8,6.2,6.5,10.2H318
						c-0.1-0.2-0.2-0.5-0.3-0.7c-0.3-0.8-0.6-1.6-1-2.3c-1.1-2.5-2.9-4.8-5-6.5c-1.6-1.3-3.5-2.6-5.6-3.2c-2.2-0.6-5.1-0.4-7.1,0.6
						c-0.1,0-0.3-0.1-0.2-0.2c0.7-0.7,1.8-0.9,2.8-1.1c1.2-0.3,2.5-0.3,3.7-0.1c0,0,0.1,0,0.1,0c0,0,0-0.1,0-0.1
						c2.1-1.2,4.9-1.7,7.3-1.4c2.4,0.3,4.5,1.5,6.3,3.1c2.9,2.7,4.8,6.5,5.2,10.5c0,0.3,0.1,0.8,0.1,1.4H323.8z"/>
				</g>
				<path class="st6" d="M288.4,228.5c-1.1-2.9-2.4-5.6-3.8-8.4c-0.4-2.8-1.1-5.6-1.6-8.5c-0.6-3.2-1-6.4-1-9.6
					c0-3.2,0.2-6.3,0.3-9.5c0.3-6.2,0.4-12.5-1-18.6c-0.7-3-1.8-6-2.9-8.9c-1.1-2.7-2.3-5.5-4.1-7.8c-1.7-2.1-3.9-3.9-6.2-5.4
					c-2.4-1.6-4.8-3.1-7.4-4.3c-5.2-2.4-11-3.4-16.7-3.7c-5.8-0.2-12,0.2-17.7,1.6c-2.6,0.7-5.1,1.6-7.4,3c-1.5,0.9-3,2.1-4,3.5
					c-0.1,0.1-0.2,0.2-0.3,0.2c-6.6,3.9-11.9,9.7-14.7,17c-1.8,4.8-2.3,10.1-1.8,15.2c0.6,5.4,2.2,10.7,3.6,15.9
					c0.8,3,1,6.1,0.5,9.2c-0.3,1.6-0.7,3.3-1.2,4.8c-1.5,3.1-3.8,5.8-5.6,8.8c-1.5,2.6-2.7,5.7-3.4,8.8c0,2.5,0.2,4.9,0.7,7.3
					c0.8,3.8,2.3,7.7,4.9,10.7c2.1,2.4,4.8,4,7.7,4.7c0.7-0.1,1.4-0.2,2.1-0.3c-0.2-0.7-0.5-1.4-0.8-2.1c0.1,0.2,0.2,0.4,0.3,0.5
					c0.4,0.6,0.9,1,1.4,1.5c3.6-0.5,7.2-0.6,10.8-0.2c4.6,0.5,9,1.6,13.6,2.4c-0.4-1.3-0.7-2.6-1.2-3.8c-0.6-1.7-1.4-3.3-2.3-4.9
					c-1.9-3.3-4.2-6.3-6.4-9.3c-2.2-3-4.3-6.1-6-9.5c-0.5-1.1-1-2.2-1.4-3.4c0.8,1.4,1.7,2.8,2.6,4.1c2.9,4.2,6.1,8.2,9,12.3
					c3.2,4.6,6,9.5,7.8,14.8c0.2,0,0.4,0.1,0.6,0.1c-2.7-9.6-8.9-17.4-14.6-25.4c-2.9-4.1-5.5-8.3-7.1-13.1
					c-0.2-0.6-0.4-1.2-0.5-1.8c-0.4-3.2-0.4-6.5,0.1-9.8c0.6-3.9,1.8-7.6,3.4-11.2c1.5-3.5,3.2-6.8,4.7-10.3
					c0.8-1.8,1.4-3.6,2.1-5.3c0.7-1.7,1.3-3.4,1.7-5.2c0.8,1.6,1.8,3.1,3,4.5c2.7,3.1,6,5.3,9.5,7.3c4.2,2.4,8.5,4.8,12.8,7.1
					c3.7,2,7.6,3.8,11,6.4c4.4,3.3,7.3,8.4,7.8,13.9c0.5,5.1-2.1,9.6-5,13.6c-4,5.6-8.3,12-9.4,18.9c-0.5,3.2-0.4,6.5,0.4,9.7
					c0.3-0.1,0.7-0.1,1-0.2c-0.4-3-0.5-6,0-9c0.3-1.8,0.8-3.6,1.5-5.3c-0.6,3-0.6,6.1-0.4,9.2c0.1,1.6,0.3,3.2,0.8,4.7
					c0.3-0.1,0.6-0.2,1-0.2c-0.4-2-0.5-4-0.5-6c0-1.2,0-2.5,0.1-3.7c0.3,1.5,0.9,2.8,1.5,4.2c0.7,1.5,1.6,3,2.2,4.6
					c5-1.5,9.8-3.4,14.8-4.9c1.8-0.5,3.5-1,5.3-1.3c0.3-0.8,0.6-1.7,0.8-2.4c1-3.4,1.5-7,1.8-10.6c0.3,2.4,0.6,4.9,0.5,7.3
					c0,1.8-0.2,3.5-0.4,5.3c0.4-0.1,0.8-0.1,1.2-0.2c0.4-1.9,0.7-3.9,0.7-5.8c0.1-3.7-0.3-7.5-0.8-11.2c-0.1-0.9-0.2-1.7-0.4-2.6
					c1.4,3.2,2.5,6.6,3.1,10.1c0.5,3.1,0.6,6.2,0.3,9.2c0.3,0,0.5,0,0.8,0C291.4,241,290.7,234.5,288.4,228.5z"/>
			</g>
			<g>
				<g>
					<g>
						<rect x="353.6" y="287" class="st7" width="8.8" height="54.7"/>
						<rect x="354.4" y="287" class="st8" width="7.4" height="3"/>
						<rect x="353.6" y="290.3" class="st9" width="8.8" height="54.7"/>
						<rect x="361.4" y="290.3" class="st9" width="1" height="54.7"/>
					</g>
					<g>
						<rect x="362.4" y="287" class="st10" width="8.8" height="54.7"/>
						<rect x="363.1" y="287" class="st8" width="7.4" height="3"/>
						<rect x="362.4" y="290.3" class="st11" width="8.8" height="54.7"/>
						<rect x="370.2" y="290.3" class="st12" width="1" height="54.7"/>
					</g>
					<g>
						<rect x="371.2" y="292.6" class="st13" width="7.9" height="49.5"/>
						<rect x="371.8" y="292.6" class="st8" width="6.7" height="2.7"/>
						<rect x="371.2" y="295.6" class="st14" width="7.9" height="49.5"/>
						<rect x="378.2" y="295.6" class="st15" width="0.9" height="49.5"/>
					</g>
					<g>
						<rect x="379.1" y="291.1" class="st7" width="8.2" height="50.9"/>
						<rect x="379.8" y="291.1" class="st8" width="6.9" height="2.8"/>
						<rect x="379.1" y="294.1" class="st9" width="8.2" height="50.9"/>
						<rect x="386.3" y="294.1" class="st9" width="0.9" height="50.9"/>
					</g>
					<g>
						<rect x="387.3" y="291.1" class="st10" width="8.2" height="50.9"/>
						<rect x="387.9" y="291.1" class="st8" width="6.9" height="2.8"/>
						<rect x="387.3" y="294.1" class="st11" width="8.2" height="50.9"/>
						<rect x="394.5" y="294.1" class="st12" width="0.9" height="50.9"/>
					</g>
					<g>
						<rect x="395.4" y="296.3" class="st13" width="7.4" height="46"/>
						<rect x="396" y="296.3" class="st8" width="6.3" height="2.5"/>
						<rect x="395.4" y="299" class="st14" width="7.4" height="46"/>
						<rect x="401.9" y="299" class="st15" width="0.8" height="46"/>
					</g>
				</g>
				<g>
					<path class="st16" d="M173.6,268.9c-2.4,0-4.2,2-4,4.4l6.1,74.3h0.9h123h0.9l6.1-74.3c0.2-2.3-1.7-4.4-4-4.4H173.6z"/>
					<path class="st17" d="M176.2,269.8c-2.3,0-4,2-3.9,4.3l5.8,72.8h0.9h118h0.9l5.8-72.8c0.2-2.3-1.6-4.3-3.9-4.3H176.2z"/>
					<path class="st16" d="M245.4,310.1c0,4.1-3.3,7.4-7.4,7.4c-4.1,0-7.4-3.3-7.4-7.4c0-4.1,3.3-7.4,7.4-7.4
						C242.1,302.7,245.4,306,245.4,310.1z"/>
					<path class="st18" d="M245,309.7c0,3.8-3.1,6.9-6.9,6.9c-3.8,0-6.9-3.1-6.9-6.9c0-3.8,3.1-6.9,6.9-6.9
						C241.9,302.7,245,305.8,245,309.7z"/>
					<path class="st18" d="M298.5,271h-51.7H228h-51.7c-3.9,0.4-2.7,6-2.7,6c0.2-4.4,3.7-4.6,3.7-4.6h120.3c0,0,3.4,0.1,3.7,4.6
						C301.2,277,302.4,271.4,298.5,271z"/>
				</g>
				<g>
					<g>
						<path class="st19" d="M89.6,309.1H74.7l2.8,35.3c0,0.6,5.4,1.1,12.1,1.1c6.7,0,12.1-0.5,12.1-1.1l2.8-35.3H89.6z"/>
						<path class="st20" d="M96,309.1c-0.3,2.7-1,21.4-1.1,28.1c0,2.7-0.1,5.4-0.2,8.1c4.1-0.2,6.9-0.6,6.9-1l2.8-35.3H96z"/>
						<path class="st21" d="M104.4,309.1c0,0.6-6.7,1-14.9,1s-14.9-0.5-14.9-1c0-0.6,6.7-1,14.9-1S104.4,308.5,104.4,309.1z"/>
					</g>
					<g>
						<polygon class="st22" points="91.2,310.1 90.2,245.1 89.2,243.5 89.1,310.1 						"/>
						<g>
							<path class="st23" d="M71.9,294.3c1.6-0.6,3.3-0.8,4.9-1c1.5-0.2,3.1-0.2,4.6-0.5c0.9-0.1,1.7-0.4,2.5-0.7
								c1.1-0.4,2.1-0.8,3.1-1.4c1.8-1.2,3.3-3.3,2.6-5.5c-0.7-2-2.8-3.2-4.8-3.6c-4.7-0.9-9.7,1.3-12.5,5.1
								c-1.3,1.7-2.2,3.8-2.7,5.9c-0.3,1.1-0.4,2.3-0.3,3.4C70.1,295.2,71,294.7,71.9,294.3z"/>
							<path class="st24" d="M87.8,282.7c-0.5,0-1,0-1.4,0.1c-4.2,0.4-8.2,2-11.5,4.7c-2.6,2.1-4.8,5.1-5.3,8.5
								c0.6-0.7,1.5-1.2,2.4-1.6c1.6-0.6,3.3-0.8,4.9-1c1.5-0.2,3.1-0.2,4.6-0.5c0.9-0.1,1.7-0.4,2.5-0.7c1.1-0.4,2.1-0.8,3.1-1.4
								c1.8-1.2,3.3-3.3,2.6-5.5C89.4,284.2,88.7,283.3,87.8,282.7z"/>
						</g>
						<g>
							<path class="st23" d="M105,303.6c-1.6-0.6-3.3-0.8-4.9-1c-1.5-0.2-3.1-0.2-4.6-0.5c-0.9-0.1-1.7-0.4-2.5-0.7
								c-1.1-0.4-2.1-0.8-3.1-1.4c-1.8-1.2-3.3-3.3-2.6-5.5c0.7-2,2.8-3.2,4.8-3.6c4.7-0.9,9.7,1.3,12.5,5.1
								c1.3,1.7,2.2,3.8,2.7,5.9c0.3,1.1,0.4,2.3,0.3,3.4C106.8,304.5,105.9,304,105,303.6z"/>
							<path class="st24" d="M89.1,292c0.5,0,1,0,1.4,0.1c4.2,0.4,8.2,2,11.5,4.7c2.6,2.1,4.8,5.1,5.3,8.5c-0.6-0.7-1.5-1.2-2.4-1.6
								c-1.6-0.6-3.3-0.8-4.9-1c-1.5-0.2-3.1-0.2-4.6-0.5c-0.9-0.1-1.7-0.4-2.5-0.7c-1.1-0.4-2.1-0.8-3.1-1.4
								c-1.8-1.2-3.3-3.3-2.6-5.5C87.5,293.5,88.2,292.6,89.1,292z"/>
						</g>
						<g>
							<path class="st23" d="M75.5,276.5c1.3-0.5,2.8-0.7,4.2-0.9c1.3-0.1,2.7-0.2,4-0.4c0.7-0.1,1.5-0.3,2.2-0.6
								c0.9-0.3,1.8-0.7,2.6-1.2c1.5-1,2.9-2.8,2.2-4.7c-0.6-1.7-2.4-2.7-4.1-3.1c-4-0.8-8.3,1.1-10.6,4.4c-1.1,1.5-1.9,3.2-2.3,5
								c-0.2,0.9-0.4,1.9-0.3,2.9C73.9,277.3,74.7,276.9,75.5,276.5z"/>
							<path class="st24" d="M89,266.6c-0.4,0-0.8,0-1.2,0.1c-3.5,0.3-7,1.7-9.8,4c-2.2,1.8-4.1,4.3-4.5,7.2c0.5-0.6,1.3-1.1,2-1.4
								c1.3-0.5,2.8-0.7,4.2-0.9c1.3-0.1,2.7-0.2,4-0.4c0.7-0.1,1.5-0.3,2.2-0.6c0.9-0.3,1.8-0.7,2.6-1.2c1.5-1,2.9-2.8,2.2-4.7
								C90.4,267.9,89.7,267.2,89,266.6z"/>
						</g>
						<g>
							<path class="st23" d="M103.6,285.7c-1.3-0.5-2.8-0.7-4.2-0.9c-1.3-0.1-2.7-0.2-4-0.4c-0.7-0.1-1.5-0.3-2.2-0.6
								c-0.9-0.3-1.8-0.7-2.6-1.2c-1.5-1-2.9-2.8-2.2-4.7c0.6-1.7,2.4-2.7,4.1-3.1c4-0.8,8.3,1.1,10.6,4.4c1.1,1.5,1.9,3.2,2.3,5
								c0.2,0.9,0.4,1.9,0.3,2.9C105.2,286.4,104.4,286,103.6,285.7z"/>
							<path class="st24" d="M90.1,275.7c0.4,0,0.8,0,1.2,0.1c3.5,0.3,7,1.7,9.8,4c2.2,1.8,4.1,4.3,4.5,7.2c-0.5-0.6-1.3-1.1-2-1.4
								c-1.3-0.5-2.8-0.7-4.2-0.9c-1.3-0.1-2.7-0.2-4-0.4c-0.7-0.1-1.5-0.3-2.2-0.6c-0.9-0.3-1.8-0.7-2.6-1.2
								c-1.5-1-2.9-2.8-2.2-4.7C88.7,277,89.4,276.3,90.1,275.7z"/>
						</g>
						<g>
							<path class="st23" d="M78.6,259.8c1-0.4,2.2-0.6,3.3-0.7c1-0.1,2.1-0.2,3.1-0.3c0.6-0.1,1.1-0.3,1.7-0.4c0.7-0.2,1.4-0.5,2-1
								c1.2-0.8,2.2-2.2,1.7-3.7c-0.4-1.3-1.9-2.1-3.2-2.4c-3.1-0.6-6.5,0.9-8.3,3.4c-0.8,1.2-1.5,2.5-1.8,3.9
								c-0.2,0.7-0.3,1.5-0.2,2.3C77.3,260.4,77.9,260,78.6,259.8z"/>
							<path class="st24" d="M89.1,252c-0.3,0-0.6,0-0.9,0.1c-2.8,0.3-5.5,1.3-7.6,3.1c-1.7,1.4-3.2,3.4-3.5,5.6
								c0.4-0.5,1-0.8,1.6-1.1c1-0.4,2.2-0.6,3.3-0.7c1-0.1,2.1-0.2,3.1-0.3c0.6-0.1,1.1-0.3,1.7-0.4c0.7-0.2,1.4-0.5,2-1
								c1.2-0.8,2.2-2.2,1.7-3.7C90.2,253,89.7,252.4,89.1,252z"/>
						</g>
						<g>
							<path class="st23" d="M100.5,267.8c-1-0.4-2.2-0.6-3.3-0.7c-1-0.1-2.1-0.2-3.1-0.3c-0.6-0.1-1.1-0.3-1.7-0.4
								c-0.7-0.2-1.4-0.5-2-1c-1.2-0.8-2.2-2.2-1.7-3.7c0.4-1.3,1.9-2.1,3.2-2.4c3.1-0.6,6.5,0.9,8.3,3.4c0.8,1.2,1.5,2.5,1.8,3.9
								c0.2,0.7,0.3,1.5,0.2,2.3C101.8,268.4,101.2,268,100.5,267.8z"/>
							<path class="st24" d="M90,260.1c0.3,0,0.6,0,0.9,0.1c2.8,0.3,5.5,1.3,7.6,3.1c1.7,1.4,3.2,3.4,3.5,5.6
								c-0.4-0.5-1-0.8-1.6-1.1c-1-0.4-2.2-0.6-3.3-0.7c-1-0.1-2.1-0.2-3.1-0.3c-0.6-0.1-1.1-0.3-1.7-0.4c-0.7-0.2-1.4-0.5-2-1
								c-1.2-0.8-2.2-2.2-1.7-3.7C88.9,261,89.4,260.5,90,260.1z"/>
						</g>
						<g>
							<path class="st23" d="M100.8,239.8c-0.8,0.8-1.5,1.7-2.1,2.6c-0.6,0.9-1.1,1.8-1.7,2.6c-0.3,0.5-0.7,0.9-1.1,1.3
								c-0.5,0.5-1.1,1-1.8,1.4c-1.2,0.7-3,1-4.1-0.1c-1-1-1.1-2.6-0.7-3.9c0.8-3.1,3.6-5.4,6.7-5.9c1.4-0.2,2.9-0.2,4.3,0.1
								c0.7,0.2,1.5,0.4,2.2,0.8C101.8,239,101.3,239.3,100.8,239.8z"/>
							<path class="st24" d="M89.2,245.8c0.1-0.3,0.3-0.6,0.5-0.8c1.5-2.4,3.6-4.3,6.2-5.5c2-0.9,4.4-1.4,6.6-0.7
								c-0.6,0.2-1.2,0.5-1.7,1c-0.8,0.8-1.5,1.7-2.1,2.6c-0.6,0.9-1.1,1.8-1.7,2.6c-0.3,0.5-0.7,0.9-1.1,1.3
								c-0.5,0.5-1.1,1-1.8,1.4c-1.2,0.7-3,1-4.1-0.1C89.5,247.2,89.3,246.5,89.2,245.8z"/>
						</g>
						<g>
							<path class="st23" d="M81.4,238.2c0.6,0.6,1.1,1.3,1.5,2c0.4,0.7,0.8,1.3,1.2,2c0.3,0.4,0.6,0.7,0.9,1
								c0.4,0.4,0.8,0.8,1.3,1.1c0.9,0.5,2.2,0.8,3-0.1c0.7-0.7,0.8-2,0.6-2.9c-0.6-2.3-2.7-4-5-4.4c-1.1-0.2-2.2-0.1-3.2,0.1
								c-0.5,0.1-1.1,0.3-1.6,0.6C80.6,237.6,81,237.9,81.4,238.2z"/>
							<path class="st24" d="M90.1,242.7c-0.1-0.2-0.2-0.4-0.4-0.6c-1.1-1.8-2.7-3.2-4.6-4.1c-1.5-0.7-3.3-1.1-4.9-0.5
								c0.5,0.1,0.9,0.4,1.2,0.7c0.6,0.6,1.1,1.3,1.5,2c0.4,0.7,0.8,1.3,1.2,2c0.3,0.4,0.6,0.7,0.9,1c0.4,0.4,0.8,0.8,1.3,1.1
								c0.9,0.5,2.2,0.8,3-0.1C89.8,243.8,90,243.2,90.1,242.7z"/>
						</g>
					</g>
				</g>
				<g>
					<g>
						<g>
							<path class="st25" d="M134.8,327.3c0,0,1.3-3.3,6.6-2.5c5.4,0.8,5,9.3-0.1,13c-4.3,3.1-12.7,4.5-12.7,4.5V340
								c0,0,6.2-0.2,10.6-3.5c4.7-3.5,3.9-8.5,1.2-9.2c-3.8-1-6.1,4.1-6.1,4.1L134.8,327.3z"/>
							<path class="st26" d="M133.3,339.3c-2.5,0.7-4.6,0.7-4.6,0.7v2.2c0,0,1.5-0.2,3.5-0.8C132.6,340.7,132.9,340,133.3,339.3z"/>
							<path class="st26" d="M136.5,328.6c0.3-1.1,0.5-2.3,0.7-3.5c-1.8,0.8-2.4,2.1-2.4,2.1l-0.4,4.2
								C134.5,331.4,135.2,329.8,136.5,328.6z"/>
							<path class="st25" d="M136.4,323.3l-15.7-0.2h-0.5l-15.7,0.2c0,0,0.7,10.9,6.3,20.5c0,0,0,0,0,0c0,0,0,0,0,0l0,0
								c0.5,0.9,4.6,1.6,9.6,1.6c5,0,9.2-0.7,9.6-1.6C135.7,334.2,136.4,323.3,136.4,323.3z"/>
							<path class="st27" d="M136.4,323.3c0,0.8-7.1,1.4-16,1.4c-8.8,0-16-0.6-16-1.4c0-0.8,7.1-1.4,16-1.4
								C129.2,321.9,136.4,322.5,136.4,323.3z"/>
						</g>
					</g>
				</g>
				<g>
					<g>
						<rect x="65.5" y="343.2" class="st28" width="351.8" height="17.5"/>
					</g>
					<g>
						<rect x="65.5" y="343.2" class="st28" width="351.8" height="10.5"/>
					</g>
					<g>
						<rect x="54.9" y="342.3" class="st29" width="370.6" height="8.9"/>
					</g>
				</g>
			</g>
		</g>
		<g>
			<g>
				<g>
					<g>
						<path class="st30" d="M128.3,121.5c0.7,8.7,8,8.7,8,8.7h0c0,0,7.3,0,8-8.7c0,0-4.1-0.7-8-0.6
							C132.4,120.8,128.3,121.5,128.3,121.5z"/>
					</g>
					<rect x="135.5" y="9.2" class="st31" width="1.5" height="84.5"/>
					<g>
						<path class="st32" d="M164.5,123.3c-2.5-30.7-28.2-30.7-28.2-30.7h-0.1c0,0-25.7,0-28.2,30.7c0,0,14.4,2.4,28.2,2.3
							C150.1,125.7,164.5,123.3,164.5,123.3z"/>
					</g>
					<rect x="132" y="90.7" class="st33" width="8.5" height="2.4"/>
				</g>
			</g>
		</g>
		<g>
			<g>
				<g>
					<g>
						<path class="st34" d="M252.2,70.9h-12.5l2.4,29.6c0,0.5,4.5,0.9,10.2,0.9s10.2-0.4,10.2-0.9l2.4-29.6H252.2z"/>
						<path class="st20" d="M257.9,70.9c0,0.6,0,1.2,0,1.8c-0.1,5.9,0,11.8-0.1,17.8c-0.1,3.6-0.2,7.3-0.5,10.9
							c3.1-0.2,5.1-0.5,5.1-0.8l2.4-29.6H257.9z"/>
						<path class="st21" d="M264.8,70.9c0,0.5-5.6,0.9-12.5,0.9c-6.9,0-12.5-0.4-12.5-0.9c0-0.5,5.6-0.9,12.5-0.9
							C259.2,70.1,264.8,70.5,264.8,70.9z"/>
					</g>
					<g>
						<path class="st24" d="M227.7,81.8C227.7,81.8,227.7,81.8,227.7,81.8c0.5-0.4,1.1-0.8,1.4-1.4c0.1-0.2,0.1-0.5,0-0.7
							c-0.1-0.2-0.3-0.2-0.6-0.2c-0.3,0-0.5,0.2-0.8,0.4c0,0,0,0,0-0.1c0-0.6,0-1.3,0.1-1.9c0.4-0.5,0.8-1,1.3-1.4
							c0.4-0.3,0.9-0.6,1.3-1c0.4-0.3,0.8-0.7,1-1.1c0.1-0.4-0.1-0.8-0.4-1c-0.3-0.2-0.7-0.1-1,0c-0.4,0.2-0.8,0.5-1.1,0.9
							c-0.4,0.4-0.7,0.8-1,1.2c0.1-0.7,0.1-1.4,0.2-2c0.3-0.5,0.6-1,1-1.5c0.6-0.6,1.2-1.2,1.9-1.7c0.3-0.2,0.6-0.5,0.9-0.7
							c0.3-0.2,0.5-0.3,0.8-0.5c0.5-0.3,0.8-0.8,0.9-1.4c0-0.4-0.2-0.7-0.6-0.7c-0.4-0.1-0.9,0.1-1.3,0.2c-0.4,0.2-0.8,0.4-1.2,0.6
							c-0.6,0.4-1.2,0.9-1.7,1.4c0.1-0.6,0.3-1.3,0.4-1.9c0.4-0.7,1-1.3,1.6-1.8c0.7-0.6,1.5-1.2,2.3-1.6c0.4-0.3,0.9-0.5,1.4-0.7
							c0.3-0.2,0.6-0.2,0.9-0.4c0.6-0.2,1.2-0.5,1.3-1.2c0.1-0.4-0.2-0.7-0.5-0.9c-0.5-0.1-1-0.1-1.4,0c-0.4,0.1-0.9,0.2-1.3,0.3
							c-0.9,0.4-1.8,0.8-2.6,1.4c0.3-0.7,0.6-1.4,1-2.1c0.6-0.7,1.4-1.3,2.2-1.8c0.5-0.3,1-0.6,1.6-0.8c0.4-0.2,0.7-0.3,1.1-0.4
							c0.8-0.1,1.6-0.2,2.4-0.4c0.4-0.1,0.8-0.2,1.2-0.3c0.3-0.1,0.6-0.3,0.8-0.5c0.4-0.4,0.2-1.1-0.2-1.4c-0.6-0.3-1.4-0.2-2-0.1
							c-0.8,0.1-1.5,0.4-2.2,0.6c-0.9,0.3-1.8,0.8-2.6,1.3c2.1-2.6,4.9-4.6,8.1-5.4c1.8-0.4,3.9-0.4,5.6,0.6
							c0.9,0.5,1.6,1.3,2.1,2.2c0.3,0.5,0.4,1,0.4,1.5c0,0.4-0.1,0.8-0.2,1.2c1.7-1,3.6-1.8,5.6-1.8c2,0,4.1,0.7,5.5,2.2
							c1.2,1.3,1.7,3.1,1.9,4.9c0,0.2,0,0.4,0,0.6c0,1-0.2,2-0.4,3c-0.4-1.9-1.5-3.6-3.3-4.5c-0.8-0.4-1.7-0.8-2.6-0.9
							c-0.7-0.1-1.6-0.2-2.3,0.3c-0.2,0.2-0.5,0.5-0.4,0.9c0,0.3,0.3,0.5,0.6,0.7c0.7,0.4,1.5,0.4,2.2,0.6c0.4,0.1,0.8,0.3,1.2,0.6
							c0.4,0.3,0.9,0.6,1.2,1c0.7,0.8,1.2,1.7,1.5,2.7c0.3,0.9,0.3,1.8,0.3,2.7c-0.4,0.8-1,1.6-1.5,2.3c0-1-0.2-2-0.5-2.8
							c-0.6-1.6-1.5-3.1-3-4c-0.6-0.4-1.4-0.6-2.2-0.6c-0.3,0-0.7,0.1-0.8,0.4c-0.1,0.3,0,0.6,0.2,0.8c0.4,0.7,1.1,1.2,1.7,1.8
							c0.7,0.8,1.3,1.8,1.6,2.9c0.5,1.6,0.5,3.4-0.2,4.9c-0.3,0.2-0.5,0.4-0.8,0.7c-0.8,0.6-1.7,1.1-2.5,1.6
							c0.3-0.7,0.5-1.5,0.5-2.3c0.1-0.8,0-1.7-0.2-2.5c-0.2-0.6-0.4-1.2-0.6-1.7c-0.2-0.5-0.5-1-1.1-1.3c-0.5-0.2-1,0-1.2,0.5
							c-0.2,0.6-0.1,1.3,0.1,1.8c0.2,0.7,0.4,1.3,0.5,2c0.1,0.4,0,0.8,0,1.1c0,0.5-0.1,0.9-0.3,1.4c-0.3,1-0.8,1.8-1.4,2.6
							c-0.9,0.3-1.9,0.6-2.8,0.8c0.6-1.1,0.8-2.4,0.9-3.6c0-0.5,0-0.9-0.1-1.3c-0.1-0.4-0.2-0.9-0.6-1.1c-0.4-0.2-0.9,0-1.1,0.3
							c-0.3,0.5-0.3,1.1-0.4,1.6c0,0.6,0,1.2-0.1,1.8c0,0.3-0.2,0.6-0.3,0.9c-0.2,0.4-0.3,0.7-0.6,1c-0.2,0.3-0.4,0.6-0.7,0.9
							c-1,0.2-2,0.3-3,0.4c0.1-0.2,0.2-0.3,0.3-0.5c0.3-0.6,0.6-1.2,0.7-1.8c0.1-0.4,0.2-0.8,0.2-1.2c0-0.3,0-0.8-0.2-1
							c-0.3-0.3-0.7-0.1-0.9,0.1c-0.3,0.3-0.4,0.8-0.6,1.2c-0.1,0.4-0.2,0.9-0.3,1.4c-0.1,0.5-0.4,1-0.7,1.4
							c-0.2,0.2-0.3,0.5-0.5,0.7c-0.8,0.1-1.6,0.2-2.4,0.3c0.5-0.7,0.9-1.6,0.7-2.5c0-0.1-0.1-0.2-0.2-0.1c-1.1,0.4-1.6,1.6-2.3,2.5
							c-0.1,0.2-0.3,0.3-0.4,0.5c-2.3,0.5-4.8,1.3-6.5,3.1c0-0.1,0-0.1,0-0.2c-0.1-0.7,0-1.4,0.1-2.1
							C227.6,82.5,227.6,82.2,227.7,81.8z"/>
					</g>
					<g>
						<path class="st23" d="M287.9,79.8C287.9,79.8,287.8,79.7,287.9,79.8c-0.7-0.5-1.5-1-1.8-1.8c-0.1-0.3-0.2-0.6,0-0.9
							c0.2-0.2,0.4-0.3,0.7-0.3c0.4,0.1,0.7,0.3,1,0.6c0,0,0-0.1,0-0.1c0-0.8-0.1-1.7-0.1-2.5c-0.5-0.7-1.1-1.3-1.7-1.8
							c-0.6-0.4-1.2-0.8-1.7-1.3c-0.5-0.4-1.1-0.9-1.3-1.5c-0.2-0.5,0.1-1,0.5-1.3c0.4-0.3,0.9-0.2,1.3,0c0.5,0.3,1,0.7,1.4,1.1
							c0.5,0.5,0.9,1.1,1.3,1.6c-0.1-0.9-0.2-1.8-0.3-2.7c-0.4-0.7-0.8-1.3-1.3-1.9c-0.7-0.8-1.6-1.6-2.5-2.2
							c-0.4-0.3-0.8-0.6-1.2-0.9c-0.3-0.2-0.7-0.4-1-0.7c-0.6-0.4-1.1-1-1.1-1.8c0-0.5,0.3-0.9,0.8-1c0.6-0.1,1.2,0.1,1.7,0.3
							c0.5,0.2,1,0.5,1.5,0.8c0.8,0.5,1.6,1.1,2.3,1.9c-0.2-0.8-0.4-1.7-0.6-2.5c-0.6-0.9-1.3-1.7-2-2.4c-0.9-0.8-1.9-1.5-3-2.1
							c-0.6-0.3-1.2-0.6-1.8-0.9c-0.4-0.2-0.8-0.3-1.2-0.5c-0.7-0.3-1.5-0.7-1.6-1.6c-0.1-0.5,0.2-1,0.7-1.1c0.6-0.2,1.3-0.1,1.9,0
							c0.6,0.1,1.1,0.2,1.6,0.5c1.2,0.5,2.4,1.1,3.4,1.8c-0.4-0.9-0.8-1.8-1.2-2.7c-0.8-0.9-1.8-1.7-2.9-2.3c-0.7-0.4-1.3-0.7-2-1
							c-0.5-0.2-1-0.4-1.5-0.5c-1.1-0.2-2.1-0.3-3.2-0.5c-0.5-0.1-1.1-0.2-1.6-0.4c-0.4-0.1-0.8-0.3-1.1-0.7
							c-0.5-0.6-0.3-1.5,0.3-1.8c0.7-0.4,1.8-0.3,2.6-0.1c1,0.2,2,0.5,2.9,0.8c1.2,0.4,2.3,1.1,3.4,1.8c-2.7-3.4-6.4-6-10.6-7
							c-2.4-0.6-5.1-0.5-7.3,0.8c-1.1,0.7-2.1,1.8-2.7,2.9c-0.3,0.6-0.6,1.3-0.6,2c0,0.5,0.2,1,0.3,1.5c-2.2-1.3-4.8-2.3-7.4-2.4
							c-2.6-0.1-5.4,0.9-7.2,2.9c-1.5,1.7-2.2,4.1-2.4,6.4c0,0.3,0,0.5-0.1,0.8c0.1,1.3,0.3,2.6,0.6,3.9c0.5-2.5,2-4.7,4.3-5.9
							c1.1-0.5,2.2-1,3.4-1.2c1-0.2,2.2-0.3,2.9,0.4c0.3,0.3,0.6,0.7,0.6,1.1c0,0.4-0.4,0.7-0.8,0.9c-0.9,0.5-1.9,0.6-2.9,0.8
							c-0.5,0.1-1.1,0.5-1.5,0.8c-0.6,0.4-1.1,0.8-1.6,1.4c-0.9,1-1.6,2.2-1.9,3.5c-0.3,1.2-0.4,2.4-0.4,3.6c0.6,1.1,1.3,2.1,2,3.1
							c0-1.3,0.3-2.6,0.7-3.7c0.7-2,2-4.1,3.9-5.3c0.8-0.5,1.8-0.8,2.8-0.7c0.4,0,0.9,0.1,1.1,0.6c0.2,0.4,0,0.8-0.2,1.1
							c-0.6,0.9-1.5,1.5-2.2,2.3c-1,1.1-1.7,2.4-2.1,3.7c-0.7,2.1-0.6,4.4,0.3,6.4c0.4,0.3,0.7,0.6,1.1,0.9c1.1,0.8,2.2,1.5,3.3,2.1
							c-0.4-0.9-0.7-2-0.7-3c-0.1-1.1,0-2.2,0.3-3.3c0.2-0.8,0.5-1.5,0.8-2.3c0.3-0.6,0.7-1.4,1.4-1.7c0.6-0.3,1.3,0,1.6,0.6
							c0.3,0.7,0.1,1.7-0.1,2.4c-0.2,0.9-0.5,1.7-0.7,2.6c-0.1,0.5-0.1,1,0,1.5c0,0.6,0.2,1.2,0.3,1.8c0.4,1.3,1,2.4,1.9,3.4
							c1.2,0.4,2.5,0.7,3.7,1c-0.8-1.4-1.1-3.1-1.2-4.7c0-0.6,0-1.2,0.1-1.8c0.1-0.5,0.3-1.2,0.8-1.5c0.5-0.3,1.1,0,1.4,0.5
							c0.4,0.6,0.4,1.4,0.5,2.1c0.1,0.8,0,1.6,0.1,2.3c0,0.4,0.2,0.8,0.4,1.2c0.2,0.5,0.4,0.9,0.7,1.4c0.3,0.4,0.6,0.8,0.9,1.2
							c1.3,0.2,2.7,0.3,4,0.5c-0.1-0.2-0.2-0.4-0.4-0.6c-0.4-0.8-0.7-1.5-0.9-2.4c-0.1-0.5-0.2-1-0.3-1.6c0-0.4-0.1-1,0.3-1.3
							c0.3-0.3,0.9-0.2,1.2,0.1c0.4,0.4,0.6,1,0.7,1.5c0.2,0.6,0.3,1.2,0.4,1.8c0.2,0.7,0.5,1.3,0.9,1.9c0.2,0.3,0.4,0.6,0.7,0.9
							c1,0.1,2.1,0.2,3.1,0.4c-0.6-0.9-1.2-2.1-0.9-3.2c0-0.1,0.2-0.2,0.3-0.2c1.4,0.5,2.1,2.1,3,3.3c0.2,0.2,0.4,0.4,0.6,0.6
							c3.1,0.6,6.4,1.7,8.5,4.1c0-0.1,0-0.2,0-0.2c0.1-0.9,0-1.9-0.1-2.8C287.9,80.7,287.9,80.2,287.9,79.8z"/>
					</g>
					<g>
						<path class="st35" d="M239.1,62.4C239.1,62.4,239.1,62.4,239.1,62.4c0.4-0.5,1-1,1.2-1.6c0.1-0.2,0.1-0.5-0.1-0.7
							c-0.2-0.1-0.4-0.2-0.6-0.1c-0.3,0.1-0.5,0.3-0.7,0.5c0,0,0,0,0-0.1c-0.1-0.6-0.2-1.3-0.2-1.9c0.3-0.6,0.7-1.1,1.1-1.6
							c0.4-0.4,0.8-0.8,1.2-1.2c0.3-0.4,0.7-0.8,0.8-1.3c0.1-0.4-0.2-0.7-0.5-0.9c-0.3-0.1-0.7,0-1,0.2c-0.4,0.3-0.7,0.6-0.9,1
							c-0.3,0.4-0.6,0.9-0.8,1.4c0-0.7-0.1-1.4-0.1-2c0.2-0.6,0.4-1.1,0.8-1.6c0.5-0.7,1-1.4,1.6-2c0.3-0.3,0.5-0.5,0.8-0.8
							c0.2-0.2,0.5-0.4,0.7-0.6c0.4-0.4,0.7-0.9,0.6-1.5c-0.1-0.4-0.3-0.6-0.7-0.6c-0.4,0-0.9,0.2-1.2,0.4c-0.4,0.2-0.7,0.5-1.1,0.8
							c-0.6,0.5-1.1,1-1.5,1.7c0-0.6,0.1-1.3,0.1-1.9c0.3-0.7,0.7-1.4,1.2-2.1c0.6-0.7,1.3-1.4,2-2c0.4-0.3,0.8-0.6,1.2-0.9
							c0.3-0.2,0.6-0.3,0.9-0.5c0.5-0.3,1.1-0.7,1.1-1.4c0-0.4-0.3-0.7-0.7-0.8c-0.5-0.1-1,0.1-1.4,0.2c-0.4,0.1-0.8,0.3-1.2,0.5
							c-0.8,0.5-1.6,1.1-2.3,1.8c0.2-0.7,0.4-1.5,0.6-2.2c0.5-0.8,1.2-1.5,1.9-2.1c0.4-0.4,0.9-0.7,1.4-1c0.3-0.2,0.7-0.4,1-0.5
							c0.8-0.3,1.6-0.5,2.4-0.8c0.4-0.1,0.8-0.3,1.1-0.5c0.3-0.2,0.6-0.3,0.7-0.6c0.3-0.5,0.1-1.2-0.5-1.4c-0.6-0.2-1.4,0-1.9,0.2
							c-0.7,0.3-1.4,0.6-2.1,1c-0.9,0.5-1.6,1.1-2.3,1.7c1.6-2.9,4.1-5.3,7.2-6.6c1.7-0.7,3.8-1,5.6-0.3c0.9,0.4,1.8,1.1,2.4,1.9
							c0.3,0.4,0.6,0.9,0.7,1.4c0.1,0.4,0,0.8,0,1.2c1.5-1.3,3.3-2.3,5.3-2.7c2-0.4,4.2,0,5.8,1.3c1.4,1.1,2.2,2.8,2.6,4.5
							c0.1,0.2,0.1,0.4,0.1,0.6c0.1,1,0.1,2,0,3c-0.7-1.8-2.1-3.3-4-3.9c-0.9-0.3-1.8-0.5-2.7-0.5c-0.7,0-1.7,0-2.2,0.6
							c-0.2,0.2-0.4,0.6-0.3,0.9c0.1,0.3,0.4,0.5,0.7,0.6c0.7,0.2,1.5,0.2,2.3,0.3c0.4,0,0.9,0.2,1.3,0.4c0.5,0.2,0.9,0.5,1.4,0.8
							c0.8,0.6,1.5,1.5,1.9,2.4c0.4,0.8,0.6,1.7,0.7,2.7c-0.3,0.9-0.7,1.7-1.1,2.5c-0.1-1-0.5-1.9-1-2.7c-0.8-1.5-2-2.9-3.6-3.5
							c-0.7-0.3-1.5-0.4-2.2-0.2c-0.3,0.1-0.7,0.2-0.8,0.5c-0.1,0.3,0.1,0.6,0.3,0.8c0.5,0.6,1.3,1,1.9,1.5c0.9,0.7,1.6,1.6,2.1,2.6
							c0.8,1.5,1,3.3,0.6,4.9c-0.2,0.3-0.5,0.5-0.7,0.8c-0.7,0.7-1.5,1.4-2.3,2c0.2-0.8,0.3-1.6,0.2-2.4c-0.1-0.8-0.3-1.7-0.6-2.5
							c-0.3-0.6-0.5-1.1-0.9-1.6c-0.3-0.4-0.7-0.9-1.2-1.1c-0.5-0.1-1,0.2-1.1,0.7c-0.2,0.6,0.1,1.3,0.4,1.8
							c0.3,0.6,0.6,1.2,0.8,1.8c0.1,0.3,0.2,0.7,0.2,1.1c0,0.5,0,0.9,0,1.4c-0.1,1-0.5,1.9-1,2.8c-0.9,0.4-1.8,0.8-2.7,1.2
							c0.4-1.2,0.5-2.5,0.3-3.7c0-0.5-0.2-0.9-0.3-1.3c-0.1-0.4-0.4-0.9-0.7-1c-0.4-0.2-0.9,0.1-1,0.5c-0.2,0.5-0.2,1.1-0.1,1.7
							c0.1,0.6,0.2,1.2,0.2,1.8c0,0.3-0.1,0.7-0.1,1c-0.1,0.4-0.2,0.8-0.4,1.1c-0.2,0.3-0.3,0.7-0.5,1c-1,0.3-2,0.6-3,0.8
							c0.1-0.2,0.1-0.3,0.2-0.5c0.2-0.6,0.4-1.3,0.4-1.9c0-0.4,0.1-0.8,0-1.2c0-0.3-0.1-0.8-0.4-1c-0.3-0.2-0.7,0-0.9,0.2
							c-0.3,0.3-0.3,0.8-0.4,1.2c-0.1,0.5,0,0.9-0.1,1.4c0,0.5-0.2,1.1-0.5,1.5c-0.1,0.3-0.3,0.5-0.4,0.7c-0.8,0.2-1.5,0.4-2.3,0.6
							c0.4-0.8,0.6-1.7,0.3-2.6c0-0.1-0.2-0.1-0.2-0.1c-1,0.6-1.3,1.9-1.9,2.8c-0.1,0.2-0.2,0.4-0.4,0.6c-2.2,0.8-4.6,2.1-5.9,4.1
							c0-0.1,0-0.1,0-0.2c-0.2-0.7-0.2-1.4-0.3-2.1C239.2,63.1,239.1,62.7,239.1,62.4z"/>
					</g>
				</g>
				<g>
					<g>
						<path class="st34" d="M359.5,70.9H347l2.4,29.6c0,0.5,4.5,0.9,10.2,0.9c5.6,0,10.2-0.4,10.2-0.9l2.4-29.6H359.5z"/>
						<path class="st20" d="M365.2,70.9c0,0.6,0,1.2,0,1.8c-0.1,5.9,0,11.8-0.1,17.8c-0.1,3.6-0.2,7.3-0.5,10.9
							c3.1-0.2,5.1-0.5,5.1-0.8l2.4-29.6H365.2z"/>
						<path class="st21" d="M372,70.9c0,0.5-5.6,0.9-12.5,0.9c-6.9,0-12.5-0.4-12.5-0.9c0-0.5,5.6-0.9,12.5-0.9
							C366.4,70.1,372,70.5,372,70.9z"/>
					</g>
					<g>
						<path class="st24" d="M334.9,81.8C334.9,81.8,334.9,81.8,334.9,81.8c0.5-0.4,1.1-0.8,1.4-1.4c0.1-0.2,0.1-0.5,0-0.7
							c-0.1-0.2-0.3-0.2-0.6-0.2c-0.3,0-0.5,0.2-0.8,0.4c0,0,0,0,0-0.1c0-0.6,0-1.3,0.1-1.9c0.4-0.5,0.8-1,1.3-1.4
							c0.4-0.3,0.9-0.6,1.3-1c0.4-0.3,0.8-0.7,1-1.1c0.1-0.4-0.1-0.8-0.4-1c-0.3-0.2-0.7-0.1-1,0c-0.4,0.2-0.8,0.5-1.1,0.9
							c-0.4,0.4-0.7,0.8-1,1.2c0.1-0.7,0.1-1.4,0.2-2c0.3-0.5,0.6-1,1-1.5c0.6-0.6,1.2-1.2,1.9-1.7c0.3-0.2,0.6-0.5,0.9-0.7
							c0.3-0.2,0.5-0.3,0.8-0.5c0.5-0.3,0.8-0.8,0.9-1.4c0-0.4-0.2-0.7-0.6-0.7c-0.4-0.1-0.9,0.1-1.3,0.2c-0.4,0.2-0.8,0.4-1.2,0.6
							c-0.6,0.4-1.2,0.9-1.7,1.4c0.1-0.6,0.3-1.3,0.4-1.9c0.4-0.7,1-1.3,1.6-1.8c0.7-0.6,1.5-1.2,2.3-1.6c0.4-0.3,0.9-0.5,1.4-0.7
							c0.3-0.2,0.6-0.2,0.9-0.4c0.6-0.2,1.2-0.5,1.3-1.2c0.1-0.4-0.2-0.7-0.5-0.9c-0.5-0.1-1-0.1-1.4,0c-0.4,0.1-0.9,0.2-1.3,0.3
							c-0.9,0.4-1.8,0.8-2.6,1.4c0.3-0.7,0.6-1.4,1-2.1c0.6-0.7,1.4-1.3,2.2-1.8c0.5-0.3,1-0.6,1.6-0.8c0.4-0.2,0.7-0.3,1.1-0.4
							c0.8-0.1,1.6-0.2,2.4-0.4c0.4-0.1,0.8-0.2,1.2-0.3c0.3-0.1,0.6-0.3,0.8-0.5c0.4-0.4,0.2-1.1-0.2-1.4c-0.6-0.3-1.4-0.2-2-0.1
							c-0.8,0.1-1.5,0.4-2.2,0.6c-0.9,0.3-1.8,0.8-2.6,1.3c2.1-2.6,4.9-4.6,8.1-5.4c1.8-0.4,3.9-0.4,5.6,0.6
							c0.9,0.5,1.6,1.3,2.1,2.2c0.3,0.5,0.4,1,0.4,1.5c0,0.4-0.1,0.8-0.2,1.2c1.7-1,3.6-1.8,5.6-1.8c2,0,4.1,0.7,5.5,2.2
							c1.2,1.3,1.7,3.1,1.9,4.9c0,0.2,0,0.4,0,0.6c0,1-0.2,2-0.4,3c-0.4-1.9-1.5-3.6-3.3-4.5c-0.8-0.4-1.7-0.8-2.6-0.9
							c-0.7-0.1-1.6-0.2-2.3,0.3c-0.2,0.2-0.5,0.5-0.4,0.9c0,0.3,0.3,0.5,0.6,0.7c0.7,0.4,1.5,0.4,2.2,0.6c0.4,0.1,0.8,0.3,1.2,0.6
							c0.4,0.3,0.9,0.6,1.2,1c0.7,0.8,1.2,1.7,1.5,2.7c0.3,0.9,0.3,1.8,0.3,2.7c-0.4,0.8-1,1.6-1.5,2.3c0-1-0.2-2-0.5-2.8
							c-0.6-1.6-1.5-3.1-3-4c-0.6-0.4-1.4-0.6-2.2-0.6c-0.3,0-0.7,0.1-0.8,0.4c-0.1,0.3,0,0.6,0.2,0.8c0.4,0.7,1.1,1.2,1.7,1.8
							c0.7,0.8,1.3,1.8,1.6,2.9c0.5,1.6,0.5,3.4-0.2,4.9c-0.3,0.2-0.5,0.4-0.8,0.7c-0.8,0.6-1.7,1.1-2.5,1.6
							c0.3-0.7,0.5-1.5,0.5-2.3c0.1-0.8,0-1.7-0.2-2.5c-0.2-0.6-0.4-1.2-0.6-1.7c-0.2-0.5-0.5-1-1.1-1.3c-0.5-0.2-1,0-1.2,0.5
							c-0.2,0.6-0.1,1.3,0.1,1.8c0.2,0.7,0.4,1.3,0.5,2c0.1,0.4,0,0.8,0,1.1c0,0.5-0.1,0.9-0.3,1.4c-0.3,1-0.8,1.8-1.4,2.6
							c-0.9,0.3-1.9,0.6-2.8,0.8c0.6-1.1,0.8-2.4,0.9-3.6c0-0.5,0-0.9-0.1-1.3c-0.1-0.4-0.2-0.9-0.6-1.1c-0.4-0.2-0.9,0-1.1,0.3
							c-0.3,0.5-0.3,1.1-0.4,1.6c0,0.6,0,1.2-0.1,1.8c0,0.3-0.2,0.6-0.3,0.9c-0.2,0.4-0.3,0.7-0.6,1c-0.2,0.3-0.4,0.6-0.7,0.9
							c-1,0.2-2,0.3-3,0.4c0.1-0.2,0.2-0.3,0.3-0.5c0.3-0.6,0.6-1.2,0.7-1.8c0.1-0.4,0.2-0.8,0.2-1.2c0-0.3,0-0.8-0.2-1
							c-0.3-0.3-0.7-0.1-0.9,0.1c-0.3,0.3-0.4,0.8-0.6,1.2c-0.1,0.4-0.2,0.9-0.3,1.4c-0.1,0.5-0.4,1-0.7,1.4
							c-0.2,0.2-0.3,0.5-0.5,0.7c-0.8,0.1-1.6,0.2-2.4,0.3c0.5-0.7,0.9-1.6,0.7-2.5c0-0.1-0.1-0.2-0.2-0.1c-1.1,0.4-1.6,1.6-2.3,2.5
							c-0.1,0.2-0.3,0.3-0.4,0.5c-2.3,0.5-4.8,1.3-6.5,3.1c0-0.1,0-0.1,0-0.2c-0.1-0.7,0-1.4,0.1-2.1
							C334.9,82.5,334.9,82.2,334.9,81.8z"/>
					</g>
					<g>
						<path class="st23" d="M395.1,79.8C395.1,79.8,395.1,79.7,395.1,79.8c-0.7-0.5-1.5-1-1.8-1.8c-0.1-0.3-0.2-0.6,0-0.9
							c0.2-0.2,0.4-0.3,0.7-0.3c0.4,0.1,0.7,0.3,1,0.6c0,0,0-0.1,0-0.1c0-0.8-0.1-1.7-0.1-2.5c-0.5-0.7-1.1-1.3-1.7-1.8
							c-0.6-0.4-1.2-0.8-1.7-1.3c-0.5-0.4-1.1-0.9-1.3-1.5c-0.2-0.5,0.1-1,0.5-1.3c0.4-0.3,0.9-0.2,1.3,0c0.5,0.3,1,0.7,1.4,1.1
							c0.5,0.5,0.9,1.1,1.3,1.6c-0.1-0.9-0.2-1.8-0.3-2.7c-0.4-0.7-0.8-1.3-1.3-1.9c-0.7-0.8-1.6-1.6-2.5-2.2
							c-0.4-0.3-0.8-0.6-1.2-0.9c-0.3-0.2-0.7-0.4-1-0.7c-0.6-0.4-1.1-1-1.1-1.8c0-0.5,0.3-0.9,0.8-1c0.6-0.1,1.2,0.1,1.7,0.3
							c0.5,0.2,1,0.5,1.5,0.8c0.8,0.5,1.6,1.1,2.3,1.9c-0.2-0.8-0.4-1.7-0.6-2.5c-0.6-0.9-1.3-1.7-2-2.4c-0.9-0.8-1.9-1.5-3-2.1
							c-0.6-0.3-1.2-0.6-1.8-0.9c-0.4-0.2-0.8-0.3-1.2-0.5c-0.7-0.3-1.5-0.7-1.6-1.6c-0.1-0.5,0.2-1,0.7-1.1c0.6-0.2,1.3-0.1,1.9,0
							c0.6,0.1,1.1,0.2,1.6,0.5c1.2,0.5,2.4,1.1,3.4,1.8c-0.4-0.9-0.8-1.8-1.2-2.7c-0.8-0.9-1.8-1.7-2.9-2.3c-0.7-0.4-1.3-0.7-2-1
							c-0.5-0.2-1-0.4-1.5-0.5c-1.1-0.2-2.1-0.3-3.2-0.5c-0.5-0.1-1.1-0.2-1.6-0.4c-0.4-0.1-0.8-0.3-1.1-0.7
							c-0.5-0.6-0.3-1.5,0.3-1.8c0.7-0.4,1.8-0.3,2.6-0.1c1,0.2,2,0.5,2.9,0.8c1.2,0.4,2.3,1.1,3.4,1.8c-2.7-3.4-6.4-6-10.6-7
							c-2.4-0.6-5.1-0.5-7.3,0.8c-1.1,0.7-2.1,1.8-2.7,2.9c-0.3,0.6-0.6,1.3-0.6,2c0,0.5,0.2,1,0.3,1.5c-2.2-1.3-4.8-2.3-7.4-2.4
							c-2.6-0.1-5.4,0.9-7.2,2.9c-1.5,1.7-2.2,4.1-2.4,6.4c0,0.3,0,0.5-0.1,0.8c0.1,1.3,0.3,2.6,0.6,3.9c0.5-2.5,2-4.7,4.3-5.9
							c1.1-0.5,2.2-1,3.4-1.2c1-0.2,2.2-0.3,2.9,0.4c0.3,0.3,0.6,0.7,0.6,1.1c0,0.4-0.4,0.7-0.8,0.9c-0.9,0.5-1.9,0.6-2.9,0.8
							c-0.5,0.1-1.1,0.5-1.5,0.8c-0.6,0.4-1.1,0.8-1.6,1.4c-0.9,1-1.6,2.2-1.9,3.5c-0.3,1.2-0.4,2.4-0.4,3.6c0.6,1.1,1.3,2.1,2,3.1
							c0-1.3,0.3-2.6,0.7-3.7c0.7-2,2-4.1,3.9-5.3c0.8-0.5,1.8-0.8,2.8-0.7c0.4,0,0.9,0.1,1.1,0.6c0.2,0.4,0,0.8-0.2,1.1
							c-0.6,0.9-1.5,1.5-2.2,2.3c-1,1.1-1.7,2.4-2.1,3.7c-0.7,2.1-0.6,4.4,0.3,6.4c0.4,0.3,0.7,0.6,1.1,0.9c1.1,0.8,2.2,1.5,3.3,2.1
							c-0.4-0.9-0.7-2-0.7-3c-0.1-1.1,0-2.2,0.3-3.3c0.2-0.8,0.5-1.5,0.8-2.3c0.3-0.6,0.7-1.4,1.4-1.7c0.6-0.3,1.3,0,1.6,0.6
							c0.3,0.7,0.1,1.7-0.1,2.4c-0.2,0.9-0.5,1.7-0.7,2.6c-0.1,0.5-0.1,1,0,1.5c0,0.6,0.2,1.2,0.3,1.8c0.4,1.3,1,2.4,1.9,3.4
							c1.2,0.4,2.5,0.7,3.7,1c-0.8-1.4-1.1-3.1-1.2-4.7c0-0.6,0-1.2,0.1-1.8c0.1-0.5,0.3-1.2,0.8-1.5c0.5-0.3,1.1,0,1.4,0.5
							c0.4,0.6,0.4,1.4,0.5,2.1c0.1,0.8,0,1.6,0.1,2.3c0,0.4,0.2,0.8,0.4,1.2c0.2,0.5,0.4,0.9,0.7,1.4c0.3,0.4,0.6,0.8,0.9,1.2
							c1.3,0.2,2.7,0.3,4,0.5c-0.1-0.2-0.2-0.4-0.4-0.6c-0.4-0.8-0.7-1.5-0.9-2.4c-0.1-0.5-0.2-1-0.3-1.6c0-0.4-0.1-1,0.3-1.3
							c0.3-0.3,0.9-0.2,1.2,0.1c0.4,0.4,0.6,1,0.7,1.5c0.2,0.6,0.3,1.2,0.4,1.8c0.2,0.7,0.5,1.3,0.9,1.9c0.2,0.3,0.4,0.6,0.7,0.9
							c1,0.1,2.1,0.2,3.1,0.4c-0.6-0.9-1.2-2.1-0.9-3.2c0-0.1,0.2-0.2,0.3-0.2c1.4,0.5,2.1,2.1,3,3.3c0.2,0.2,0.4,0.4,0.6,0.6
							c3.1,0.6,6.4,1.7,8.5,4.1c0-0.1,0-0.2,0-0.2c0.1-0.9,0-1.9-0.1-2.8C395.2,80.7,395.1,80.2,395.1,79.8z"/>
					</g>
					<g>
						<path class="st35" d="M346.4,62.4C346.4,62.4,346.4,62.4,346.4,62.4c0.4-0.5,1-1,1.2-1.6c0.1-0.2,0.1-0.5-0.1-0.7
							c-0.2-0.1-0.4-0.2-0.6-0.1c-0.3,0.1-0.5,0.3-0.7,0.5c0,0,0,0,0-0.1c-0.1-0.6-0.2-1.3-0.2-1.9c0.3-0.6,0.6-1.1,1.1-1.6
							c0.4-0.4,0.8-0.8,1.2-1.2c0.3-0.4,0.7-0.8,0.8-1.3c0.1-0.4-0.2-0.7-0.5-0.9c-0.3-0.1-0.7,0-1,0.2c-0.4,0.3-0.7,0.6-0.9,1
							c-0.3,0.4-0.6,0.9-0.8,1.4c0-0.7-0.1-1.4-0.1-2c0.2-0.6,0.4-1.1,0.8-1.6c0.5-0.7,1-1.4,1.6-2c0.3-0.3,0.5-0.5,0.8-0.8
							c0.2-0.2,0.5-0.4,0.7-0.6c0.4-0.4,0.7-0.9,0.6-1.5c-0.1-0.4-0.3-0.6-0.7-0.6c-0.4,0-0.9,0.2-1.2,0.4c-0.4,0.2-0.7,0.5-1.1,0.8
							c-0.6,0.5-1.1,1-1.5,1.7c0-0.6,0.1-1.3,0.1-1.9c0.3-0.7,0.7-1.4,1.2-2.1c0.6-0.7,1.3-1.4,2-2c0.4-0.3,0.8-0.6,1.2-0.9
							c0.3-0.2,0.6-0.3,0.9-0.5c0.5-0.3,1.1-0.7,1.1-1.4c0-0.4-0.3-0.7-0.7-0.8c-0.5-0.1-1,0.1-1.4,0.2c-0.4,0.1-0.8,0.3-1.2,0.5
							c-0.8,0.5-1.6,1.1-2.3,1.8c0.2-0.7,0.4-1.5,0.6-2.2c0.5-0.8,1.2-1.5,1.9-2.1c0.4-0.4,0.9-0.7,1.4-1c0.3-0.2,0.7-0.4,1-0.5
							c0.8-0.3,1.6-0.5,2.4-0.8c0.4-0.1,0.8-0.3,1.1-0.5c0.3-0.2,0.6-0.3,0.7-0.6c0.3-0.5,0.1-1.2-0.5-1.4c-0.6-0.2-1.4,0-1.9,0.2
							c-0.7,0.3-1.4,0.6-2.1,1c-0.9,0.5-1.6,1.1-2.3,1.7c1.6-2.9,4.1-5.3,7.2-6.6c1.7-0.7,3.8-1,5.6-0.3c0.9,0.4,1.8,1.1,2.4,1.9
							c0.3,0.4,0.6,0.9,0.7,1.4c0.1,0.4,0,0.8,0,1.2c1.5-1.3,3.3-2.3,5.3-2.7c2-0.4,4.2,0,5.8,1.3c1.4,1.1,2.2,2.8,2.6,4.5
							c0.1,0.2,0.1,0.4,0.1,0.6c0.1,1,0.1,2,0,3c-0.7-1.8-2.1-3.3-4-3.9c-0.9-0.3-1.8-0.5-2.7-0.5c-0.7,0-1.7,0-2.2,0.6
							c-0.2,0.2-0.4,0.6-0.3,0.9c0.1,0.3,0.4,0.5,0.7,0.6c0.7,0.2,1.5,0.2,2.3,0.3c0.4,0,0.9,0.2,1.3,0.4c0.5,0.2,0.9,0.5,1.4,0.8
							c0.8,0.6,1.5,1.5,1.9,2.4c0.4,0.8,0.6,1.7,0.7,2.7c-0.3,0.9-0.7,1.7-1.1,2.5c-0.1-1-0.5-1.9-1-2.7c-0.8-1.5-2-2.9-3.6-3.5
							c-0.7-0.3-1.5-0.4-2.2-0.2c-0.3,0.1-0.7,0.2-0.8,0.5c-0.1,0.3,0.1,0.6,0.3,0.8c0.5,0.6,1.3,1,1.9,1.5c0.9,0.7,1.6,1.6,2.1,2.6
							c0.8,1.5,1,3.3,0.6,4.9c-0.2,0.3-0.5,0.5-0.7,0.8c-0.7,0.7-1.5,1.4-2.3,2c0.2-0.8,0.3-1.6,0.2-2.4c-0.1-0.8-0.3-1.7-0.6-2.5
							c-0.3-0.6-0.5-1.1-0.9-1.6c-0.3-0.4-0.7-0.9-1.2-1.1c-0.5-0.1-1,0.2-1.1,0.7c-0.2,0.6,0.1,1.3,0.4,1.8
							c0.3,0.6,0.6,1.2,0.8,1.8c0.1,0.3,0.2,0.7,0.2,1.1c0,0.5,0,0.9,0,1.4c-0.1,1-0.5,1.9-1,2.8c-0.9,0.4-1.8,0.8-2.7,1.2
							c0.4-1.2,0.5-2.5,0.3-3.7c0-0.5-0.2-0.9-0.3-1.3c-0.1-0.4-0.4-0.9-0.7-1c-0.4-0.2-0.9,0.1-1,0.5c-0.2,0.5-0.2,1.1-0.1,1.7
							c0.1,0.6,0.2,1.2,0.2,1.8c0,0.3-0.1,0.7-0.1,1c-0.1,0.4-0.2,0.8-0.4,1.1c-0.2,0.3-0.3,0.7-0.5,1c-1,0.3-2,0.6-3,0.8
							c0.1-0.2,0.1-0.3,0.2-0.5c0.2-0.6,0.4-1.3,0.4-1.9c0-0.4,0.1-0.8,0-1.2c0-0.3-0.1-0.8-0.4-1c-0.3-0.2-0.7,0-0.9,0.2
							c-0.3,0.3-0.3,0.8-0.4,1.2c-0.1,0.5,0,0.9-0.1,1.4c0,0.5-0.2,1.1-0.5,1.5c-0.1,0.3-0.3,0.5-0.4,0.7c-0.8,0.2-1.5,0.4-2.3,0.6
							c0.4-0.8,0.6-1.7,0.3-2.6c0-0.1-0.2-0.1-0.2-0.1c-1,0.6-1.3,1.9-1.9,2.8c-0.1,0.2-0.2,0.4-0.4,0.6c-2.2,0.8-4.6,2.1-5.9,4.1
							c0-0.1,0-0.1,0-0.2c-0.2-0.7-0.2-1.4-0.3-2.1C346.4,63.1,346.4,62.7,346.4,62.4z"/>
					</g>
				</g>
				<g>
					<g>
						<path class="st34" d="M308.7,70.9h-12.5l2.4,29.6c0,0.5,4.5,0.9,10.2,0.9c5.6,0,10.2-0.4,10.2-0.9l2.4-29.6H308.7z"/>
						<path class="st20" d="M314.1,70.9c-0.2,2.2-0.8,18-0.9,23.6c0,2.3-0.1,4.6-0.2,6.8c3.4-0.1,5.8-0.5,5.8-0.8l2.4-29.6H314.1z"
							/>
						<path class="st21" d="M321.2,70.9c0,0.5-5.6,0.9-12.5,0.9s-12.5-0.4-12.5-0.9c0-0.5,5.6-0.9,12.5-0.9S321.2,70.5,321.2,70.9z"
							/>
					</g>
					<g>
						<polygon class="st22" points="310.1,71.8 309.3,17.3 308.4,15.9 308.4,71.8 						"/>
						<g>
							<path class="st23" d="M293.9,58.6c1.3-0.5,2.7-0.7,4.1-0.9c1.3-0.1,2.6-0.2,3.9-0.4c0.7-0.1,1.4-0.3,2.1-0.6
								c0.9-0.3,1.8-0.7,2.6-1.2c1.5-1,2.8-2.8,2.2-4.6c-0.6-1.7-2.4-2.7-4-3c-3.9-0.8-8.1,1.1-10.5,4.3c-1.1,1.5-1.8,3.2-2.3,4.9
								c-0.2,0.9-0.4,1.9-0.3,2.9C292.4,59.3,293.1,58.9,293.9,58.6z"/>
							<path class="st24" d="M307.2,48.8c-0.4,0-0.8,0-1.2,0.1c-3.5,0.3-6.9,1.7-9.6,3.9c-2.2,1.8-4.1,4.3-4.5,7.1
								c0.5-0.6,1.2-1,2-1.3c1.3-0.5,2.7-0.7,4.1-0.9c1.3-0.1,2.6-0.2,3.9-0.4c0.7-0.1,1.4-0.3,2.1-0.6c0.9-0.3,1.8-0.7,2.6-1.2
								c1.5-1,2.8-2.8,2.2-4.6C308.6,50,308,49.3,307.2,48.8z"/>
						</g>
						<g>
							<path class="st23" d="M321.7,66.4c-1.3-0.5-2.7-0.7-4.1-0.9c-1.3-0.1-2.6-0.2-3.9-0.4c-0.7-0.1-1.4-0.3-2.1-0.6
								c-0.9-0.3-1.8-0.7-2.6-1.2c-1.5-1-2.8-2.8-2.2-4.6c0.6-1.7,2.4-2.7,4-3c3.9-0.8,8.1,1.1,10.5,4.3c1.1,1.5,1.8,3.2,2.3,4.9
								c0.2,0.9,0.4,1.9,0.3,2.9C323.2,67.2,322.4,66.7,321.7,66.4z"/>
							<path class="st24" d="M308.4,56.6c0.4,0,0.8,0,1.2,0.1c3.5,0.3,6.9,1.7,9.6,3.9c2.2,1.8,4.1,4.3,4.5,7.1
								c-0.5-0.6-1.2-1-2-1.3c-1.3-0.5-2.7-0.7-4.1-0.9c-1.3-0.1-2.6-0.2-3.9-0.4c-0.7-0.1-1.4-0.3-2.1-0.6
								c-0.9-0.3-1.8-0.7-2.6-1.2c-1.5-1-2.8-2.8-2.2-4.6C307,57.8,307.6,57.2,308.4,56.6z"/>
						</g>
						<g>
							<path class="st23" d="M296.9,43.6c1.1-0.4,2.3-0.6,3.5-0.7c1.1-0.1,2.2-0.2,3.3-0.4c0.6-0.1,1.2-0.3,1.8-0.5
								c0.8-0.3,1.5-0.6,2.2-1c1.3-0.8,2.4-2.4,1.9-4c-0.5-1.4-2-2.3-3.4-2.6c-3.4-0.7-6.9,0.9-8.9,3.7c-0.9,1.3-1.6,2.7-1.9,4.2
								c-0.2,0.8-0.3,1.6-0.2,2.5C295.6,44.3,296.2,43.9,296.9,43.6z"/>
							<path class="st24" d="M308.2,35.3c-0.3,0-0.7,0-1,0.1c-3,0.3-5.9,1.5-8.2,3.3c-1.9,1.5-3.5,3.6-3.8,6.1
								c0.4-0.5,1.1-0.9,1.7-1.1c1.1-0.4,2.3-0.6,3.5-0.7c1.1-0.1,2.2-0.2,3.3-0.4c0.6-0.1,1.2-0.3,1.8-0.5c0.8-0.3,1.5-0.6,2.2-1
								c1.3-0.8,2.4-2.4,1.9-4C309.4,36.3,308.9,35.8,308.2,35.3z"/>
						</g>
						<g>
							<path class="st23" d="M320.5,51.3c-1.1-0.4-2.3-0.6-3.5-0.7c-1.1-0.1-2.2-0.2-3.3-0.4c-0.6-0.1-1.2-0.3-1.8-0.5
								c-0.8-0.3-1.5-0.6-2.2-1c-1.3-0.8-2.4-2.4-1.9-4c0.5-1.4,2-2.3,3.4-2.6c3.4-0.7,6.9,0.9,8.9,3.7c0.9,1.3,1.6,2.7,1.9,4.2
								c0.2,0.8,0.3,1.6,0.2,2.5C321.9,51.9,321.2,51.6,320.5,51.3z"/>
							<path class="st24" d="M309.2,43c0.3,0,0.7,0,1,0.1c3,0.3,5.9,1.5,8.2,3.3c1.9,1.5,3.5,3.6,3.8,6.1c-0.4-0.5-1.1-0.9-1.7-1.1
								c-1.1-0.4-2.3-0.6-3.5-0.7c-1.1-0.1-2.2-0.2-3.3-0.4c-0.6-0.1-1.2-0.3-1.8-0.5c-0.8-0.3-1.5-0.6-2.2-1
								c-1.3-0.8-2.4-2.4-1.9-4C308,44,308.6,43.4,309.2,43z"/>
						</g>
						<g>
							<path class="st23" d="M299.5,29.6c0.9-0.3,1.8-0.5,2.8-0.6c0.9-0.1,1.7-0.1,2.6-0.3c0.5-0.1,1-0.2,1.4-0.4
								c0.6-0.2,1.2-0.4,1.7-0.8c1-0.7,1.9-1.8,1.5-3.1c-0.4-1.1-1.6-1.8-2.7-2c-2.6-0.5-5.4,0.7-7,2.9c-0.7,1-1.2,2.1-1.5,3.3
								c-0.1,0.6-0.2,1.3-0.2,1.9C298.5,30.1,299,29.8,299.5,29.6z"/>
							<path class="st24" d="M308.3,23.1c-0.3,0-0.5,0-0.8,0c-2.3,0.2-4.6,1.1-6.4,2.6c-1.5,1.2-2.7,2.8-3,4.7
								c0.3-0.4,0.8-0.7,1.3-0.9c0.9-0.3,1.8-0.5,2.8-0.6c0.9-0.1,1.7-0.1,2.6-0.3c0.5-0.1,1-0.2,1.4-0.4c0.6-0.2,1.2-0.4,1.7-0.8
								c1-0.7,1.9-1.8,1.5-3.1C309.3,23.9,308.8,23.4,308.3,23.1z"/>
						</g>
						<g>
							<path class="st23" d="M318,36.3c-0.9-0.3-1.8-0.5-2.8-0.6c-0.9-0.1-1.7-0.1-2.6-0.3c-0.5-0.1-1-0.2-1.4-0.4
								c-0.6-0.2-1.2-0.4-1.7-0.8c-1-0.7-1.9-1.8-1.5-3.1c0.4-1.1,1.6-1.8,2.7-2c2.6-0.5,5.4,0.7,7,2.9c0.7,1,1.2,2.1,1.5,3.3
								c0.1,0.6,0.2,1.3,0.2,1.9C319,36.8,318.5,36.5,318,36.3z"/>
							<path class="st24" d="M309.1,29.8c0.3,0,0.5,0,0.8,0c2.3,0.2,4.6,1.1,6.4,2.6c1.5,1.2,2.7,2.8,3,4.7
								c-0.3-0.4-0.8-0.7-1.3-0.9c-0.9-0.3-1.8-0.5-2.8-0.6c-0.9-0.1-1.7-0.1-2.6-0.3c-0.5-0.1-1-0.2-1.4-0.4
								c-0.6-0.2-1.2-0.4-1.7-0.8c-1-0.7-1.9-1.8-1.5-3.1C308.2,30.6,308.6,30.1,309.1,29.8z"/>
						</g>
						<g>
							<path class="st23" d="M318.1,12.8c-0.7,0.6-1.2,1.4-1.7,2.2c-0.5,0.7-0.9,1.5-1.4,2.2c-0.3,0.4-0.6,0.8-1,1.1
								c-0.4,0.5-0.9,0.9-1.5,1.2c-1,0.6-2.5,0.9-3.4-0.1c-0.8-0.8-0.9-2.2-0.6-3.3c0.7-2.6,3-4.5,5.6-5c1.2-0.2,2.4-0.2,3.6,0.1
								c0.6,0.1,1.3,0.3,1.8,0.7C319,12.1,318.6,12.4,318.1,12.8z"/>
							<path class="st24" d="M308.4,17.8c0.1-0.2,0.3-0.5,0.4-0.7c1.2-2,3-3.6,5.2-4.6c1.7-0.8,3.7-1.2,5.6-0.6
								c-0.5,0.1-1,0.4-1.4,0.8c-0.7,0.6-1.2,1.4-1.7,2.2c-0.5,0.7-0.9,1.5-1.4,2.2c-0.3,0.4-0.6,0.8-1,1.1
								c-0.4,0.5-0.9,0.9-1.5,1.2c-1,0.6-2.5,0.9-3.4-0.1C308.7,19,308.5,18.4,308.4,17.8z"/>
						</g>
						<g>
							<path class="st23" d="M301.9,11.4c0.5,0.5,0.9,1.1,1.3,1.7c0.4,0.5,0.7,1.1,1,1.6c0.2,0.3,0.5,0.6,0.7,0.8
								c0.3,0.3,0.7,0.6,1.1,0.9c0.8,0.5,1.9,0.6,2.6,0c0.6-0.6,0.7-1.6,0.5-2.4c-0.5-1.9-2.3-3.4-4.2-3.7c-0.9-0.2-1.8-0.1-2.7,0.1
								c-0.5,0.1-0.9,0.3-1.4,0.5C301.2,10.9,301.6,11.2,301.9,11.4z"/>
							<path class="st24" d="M309.1,15.2c-0.1-0.2-0.2-0.3-0.3-0.5c-0.9-1.5-2.3-2.7-3.9-3.4c-1.3-0.6-2.8-0.9-4.2-0.4
								c0.4,0.1,0.7,0.3,1,0.6c0.5,0.5,0.9,1.1,1.3,1.7c0.4,0.5,0.7,1.1,1,1.6c0.2,0.3,0.5,0.6,0.7,0.8c0.3,0.3,0.7,0.6,1.1,0.9
								c0.8,0.5,1.9,0.6,2.6,0C308.9,16.1,309.1,15.7,309.1,15.2z"/>
						</g>
					</g>
				</g>
			</g>
			<g>
				<g>
					<path class="st8" d="M334.9,157.2c-1-3.7,1.9-5.4,1.9-5.4s-5.1,0-7.9,0l0,0c0,0-0.3,0-0.8,0c-0.5,0-0.8,0-0.8,0l0,0
						c-2.7,0-7.9,0-7.9,0s2.9,1.7,1.9,5.4c-1,3.7-5,5.1-4.2,14.4c0.8,9.3,6.3,13,6.3,13h0c0,0.2,1.9,0.3,4.4,0.3c0.1,0,0.2,0,0.3,0
						c0.1,0,0.2,0,0.3,0c2.4,0,4.4-0.1,4.4-0.3h0c0,0,5.5-3.7,6.3-13C340,162.3,335.9,160.9,334.9,157.2z"/>
					<ellipse class="st36" cx="328.2" cy="151.7" rx="8.7" ry="0.6"/>
					<g>
						<polygon class="st37" points="323.6,178.5 322.9,178.5 323,177.9 323.4,177.9 						"/>
						<polygon class="st38" points="325.9,181 325.8,180.8 326,180.8 326.1,180.9 						"/>
						<polygon class="st39" points="321.5,181.2 321.4,180.8 321.7,180.8 321.7,181 						"/>
						<polygon class="st40" points="326.5,177.3 326.3,176.8 326.7,176.8 326.8,177 						"/>
						<polygon class="st41" points="323.9,183.2 323.7,182.8 324.1,182.7 324.2,182.9 						"/>
					</g>
					<g>
						<polygon class="st37" points="331.8,180.8 332.4,180.4 332.7,180.9 332.4,181.2 						"/>
						<polygon class="st38" points="328.5,180.4 328.7,180.5 328.5,180.7 328.4,180.6 						"/>
						<polygon class="st39" points="331.8,177.5 332.1,177.6 331.9,177.8 331.7,177.8 						"/>
						<polygon class="st40" points="330.5,183.6 330.9,183.9 330.6,184.2 330.4,184.1 						"/>
						<polygon class="st41" points="328.6,177.4 329,177.7 328.8,178 328.5,177.9 						"/>
					</g>
					<g>
						<polygon class="st40" points="337,175.4 337.5,174.9 337.8,175.5 337.5,175.7 						"/>
						<polygon class="st38" points="333.6,175 333.8,175.1 333.6,175.2 333.5,175.2 						"/>
						<polygon class="st39" points="336.9,172 337.2,172.2 337,172.4 336.8,172.3 						"/>
						<polygon class="st42" points="335.6,178.2 336,178.4 335.7,178.7 335.5,178.6 						"/>
						<polygon class="st41" points="333.7,172 334.1,172.2 333.9,172.5 333.6,172.4 						"/>
					</g>
					<g>
						<polygon class="st40" points="322.1,173.4 322.6,173 322.9,173.5 322.7,173.8 						"/>
						<polygon class="st38" points="318.7,173 318.9,173.1 318.8,173.3 318.7,173.2 						"/>
						<polygon class="st39" points="322,170.1 322.3,170.2 322.1,170.5 321.9,170.4 						"/>
						<polygon class="st42" points="320.7,176.2 321.1,176.5 320.9,176.8 320.6,176.7 						"/>
						<polygon class="st41" points="318.8,170 319.3,170.3 319,170.6 318.8,170.5 						"/>
					</g>
					<g>
						<polygon class="st43" points="322.4,164.1 323.2,164 323,164.6 322.7,164.7 						"/>
						<polygon class="st38" points="320,161.7 320.1,161.9 319.9,161.9 319.8,161.8 						"/>
						<polygon class="st39" points="324.4,161.3 324.6,161.6 324.3,161.7 324.2,161.6 						"/>
						<polygon class="st42" points="319.6,165.4 319.9,165.9 319.4,166 319.3,165.8 						"/>
						<polygon class="st41" points="321.9,159.4 322.1,159.8 321.7,159.9 321.6,159.7 						"/>
					</g>
					<g>
						<polygon class="st43" points="331.1,160.6 330.5,161.1 330.3,160.6 330.5,160.3 						"/>
						<polygon class="st38" points="334.5,160.9 334.3,160.8 334.4,160.7 334.5,160.7 						"/>
						<polygon class="st39" points="331.3,164 330.9,163.8 331.1,163.6 331.3,163.7 						"/>
						<polygon class="st42" points="332.4,157.8 331.9,157.6 332.2,157.3 332.4,157.3 						"/>
						<polygon class="st41" points="334.4,163.9 334,163.7 334.3,163.4 334.5,163.5 						"/>
					</g>
					<g>
						<polygon class="st43" points="328.1,157.2 328.6,156.7 328.9,157.2 328.7,157.5 						"/>
						<polygon class="st38" points="324.7,157.1 324.9,157.2 324.8,157.3 324.7,157.3 						"/>
						<polygon class="st39" points="327.7,153.8 328,153.9 327.9,154.2 327.7,154.1 						"/>
						<polygon class="st42" points="327,160.1 327.5,160.3 327.2,160.6 327,160.5 						"/>
						<polygon class="st41" points="324.6,154.1 325,154.3 324.8,154.6 324.5,154.6 						"/>
					</g>
					<g>
						<polygon class="st43" points="328.9,171.6 329.6,171.6 329.5,172.2 329.2,172.3 						"/>
						<polygon class="st38" points="326.5,169.3 326.6,169.5 326.4,169.5 326.3,169.4 						"/>
						<polygon class="st39" points="330.9,168.9 331,169.2 330.8,169.3 330.7,169.1 						"/>
						<polygon class="st42" points="326.1,173 326.3,173.5 325.9,173.6 325.8,173.3 						"/>
						<polygon class="st41" points="328.4,167 328.6,167.4 328.2,167.5 328.1,167.3 						"/>
					</g>
					<g>
						<polygon class="st40" points="334.1,168.9 334.1,169.6 333.5,169.5 333.4,169.2 						"/>
						<polygon class="st38" points="336.4,166.4 336.2,166.5 336.2,166.3 336.3,166.3 						"/>
						<polygon class="st39" points="336.8,170.8 336.5,171 336.4,170.7 336.6,170.6 						"/>
						<polygon class="st42" points="332.6,166.1 332.2,166.3 332.1,165.9 332.3,165.8 						"/>
						<polygon class="st41" points="338.7,168.3 338.3,168.5 338.2,168.1 338.4,168 						"/>
					</g>
				</g>
				<polygon class="st44" points="329.6,123.7 329.6,152.2 330.4,152.2 330.9,128.8 				"/>
				<polygon class="st44" points="326.7,135.7 327.7,152.3 328.5,152.2 328.2,138.6 				"/>
				<g>
					<path class="st24" d="M333,134.3c-0.3-1.6-1.3-3.2-3-3.4c-0.9-0.1-1.7,0.2-2.5,0.6c-0.8,0.5-1.6,1-2.2,1.7
						c-0.7,0.7-1.2,1.6-1.7,2.4c-0.1,0.1-0.1,0.2-0.2,0.2c0.1-0.6,0.1-1.3,0-1.9c0-0.5,0-1-0.1-1.5c-0.3-1.7-1.3-3.4-2.9-4.1
						c-2.6-1.1-4.7,1.8-5.8,3.7c-0.8,1.4-1.3,3-1.6,4.6c-0.1,0.5-0.2,0.9-0.2,1.4c0,0.1,0,0.2,0,0.4c-0.1,1.3,0,2.6,0.2,3.9
						c0.1,0.7,0.3,1.3,0.4,2c0.1,0.6,0.1,1.3,0.1,1.9c0,0.6,0,1.3-0.1,1.9c-0.1,0.7-0.3,1.4-0.5,2.1c-0.3,1.3-0.5,2.7-0.4,4
						c0,0.7,0.1,1.4,0.3,2c0.1,0.8,0.3,1.5,0.4,2.3c0.2,1.9,0.3,3.7,0.6,5.6c0.1,0.7,0.5,1.2,1.2,1.2c0.1,0,0.3,0,0.4-0.1
						c1.3-0.6,2.4-1.8,3.4-2.8c0.7-0.7,1.3-1.6,2-2.4c1.2-1.4,2.6-2.7,3.5-4.4c0.5-0.9,0.8-2,1.2-2.9c0.4-1,0.7-2,1.2-2.9
						c0.5-0.9,1.1-1.7,1.6-2.6c0.5-0.8,1.1-1.6,1.6-2.4c1-1.6,1.9-3.3,2.5-5.1C333.1,138,333.4,136.1,333,134.3z"/>
					<path class="st23" d="M333,134.3c-0.3-1.6-1.3-3.2-3-3.4c-0.9-0.1-1.7,0.2-2.5,0.6c-0.8,0.5-1.6,1-2.2,1.7
						c-0.7,0.7-1.2,1.5-1.7,2.4c-0.1,0.3-0.2,0.5-0.3,0.8c-0.4,1.1-1,2.1-1.4,3.2c-0.8,2.4-1.1,4.9-1.5,7.3
						c-0.2,1.2-0.4,2.4-0.7,3.6c-0.3,1.2-0.8,2.4-1.3,3.6c-0.5,1.2-1,2.3-1.5,3.5c-0.5,1.2-0.9,2.4-1.2,3.6
						c-0.3,1.4-0.6,2.7-0.8,4.1c0,0,0,0,0,0c0.1,0,0.3,0,0.4-0.1c1.3-0.6,2.4-1.8,3.4-2.8c0.7-0.7,1.3-1.6,2-2.4
						c1.2-1.4,2.6-2.7,3.5-4.4c0.5-0.9,0.8-2,1.2-2.9c0.4-1,0.7-2,1.2-2.9c0.5-0.9,1.1-1.7,1.6-2.6c0.5-0.8,1.1-1.6,1.6-2.4
						c1-1.6,1.9-3.3,2.5-5.1C333.1,138,333.4,136.1,333,134.3z"/>
					<path class="st23" d="M326.5,134.4c0.5,0.7,0.9,1.5,1.2,2.4c0.2,0.4,0.4,0.9,0.6,1.3c0.2,0.4,0.5,0.8,0.7,1.2
						c0.7,1.1,1.6,2,2.5,3c0.4-0.8,0.7-1.6,1-2.5c0.6-1.8,0.8-3.7,0.5-5.5c-0.3-1.6-1.3-3.2-3-3.4c-0.9-0.1-1.7,0.2-2.5,0.6
						c-0.8,0.4-1.5,1-2.2,1.7C325.8,133.5,326.2,134,326.5,134.4z"/>
					<path class="st24" d="M320.5,121.2c0.1-1.6,0.8-3.3,2.5-3.8c0.8-0.2,1.7,0,2.5,0.3c0.9,0.3,1.7,0.8,2.4,1.4
						c0.8,0.6,1.4,1.4,2,2.2c0.1,0.1,0.1,0.1,0.2,0.2c-0.1-0.6-0.3-1.3-0.3-1.9c-0.1-0.5-0.2-1-0.1-1.5c0.1-1.7,0.9-3.5,2.4-4.4
						c2.4-1.4,4.9,1.1,6.2,3c1,1.3,1.7,2.8,2.2,4.4c0.2,0.5,0.3,0.9,0.4,1.4c0,0.1,0,0.2,0.1,0.3c0.2,1.3,0.4,2.6,0.3,3.9
						c0,0.7-0.1,1.3-0.1,2c0,0.6,0,1.3,0.1,1.9c0.1,0.6,0.2,1.3,0.4,1.9c0.2,0.7,0.5,1.3,0.7,2c0.5,1.3,0.8,2.6,0.9,3.9
						c0,0.7,0,1.4,0,2.1c0,0.8-0.1,1.5-0.1,2.3c0,1.9,0.1,3.7,0.1,5.6c0,0.7-0.3,1.3-1,1.4c-0.1,0-0.3,0-0.4,0
						c-1.3-0.4-2.7-1.5-3.7-2.3c-0.8-0.6-1.5-1.4-2.3-2.1c-1.4-1.2-2.9-2.4-4-3.9c-0.6-0.9-1.1-1.8-1.6-2.8c-0.5-0.9-1-1.9-1.6-2.7
						c-0.6-0.8-1.3-1.6-1.9-2.4c-0.6-0.7-1.3-1.4-1.9-2.2c-1.2-1.5-2.3-3-3.2-4.8C321,124.9,320.5,123.1,320.5,121.2z"/>
					<path class="st23" d="M320.5,121.2c0.1-1.6,0.8-3.3,2.5-3.8c0.8-0.2,1.7,0,2.5,0.3c0.9,0.3,1.7,0.8,2.4,1.4
						c0.8,0.6,1.4,1.4,2,2.1c0.1,0.3,0.3,0.5,0.4,0.7c0.6,1,1.3,2,1.8,3c1.1,2.2,1.7,4.7,2.4,7.1c0.3,1.2,0.7,2.4,1.2,3.5
						c0.5,1.2,1.1,2.3,1.7,3.4c0.6,1.1,1.3,2.2,1.9,3.3c0.6,1.1,1.1,2.2,1.6,3.4c0.5,1.3,1,2.6,1.3,4c0,0,0,0,0,0
						c-0.1,0-0.3,0-0.4,0c-1.3-0.4-2.7-1.5-3.7-2.3c-0.8-0.6-1.5-1.4-2.3-2.1c-1.4-1.2-2.9-2.4-4-3.9c-0.6-0.9-1.1-1.8-1.6-2.8
						c-0.5-0.9-1-1.9-1.6-2.7c-0.6-0.8-1.3-1.6-1.9-2.4c-0.6-0.7-1.3-1.4-1.9-2.2c-1.2-1.5-2.3-3-3.2-4.8
						C321,124.9,320.5,123.1,320.5,121.2z"/>
				</g>
			</g>
			<g>
				<g>
					<path class="st45" d="M373.4,157.2c-1-3.7,1.9-5.4,1.9-5.4s-5.1,0-7.9,0l0,0c0,0-0.3,0-0.8,0c-0.5,0-0.8,0-0.8,0l0,0
						c-2.7,0-7.9,0-7.9,0s2.9,1.7,1.9,5.4c-1,3.7-5,5.1-4.2,14.4c0.8,9.3,6.3,13,6.3,13h0c0,0.2,1.9,0.3,4.4,0.3c0.1,0,0.2,0,0.3,0
						c0.1,0,0.2,0,0.3,0c2.4,0,4.4-0.1,4.4-0.3h0c0,0,5.5-3.7,6.3-13C378.4,162.3,374.3,160.9,373.4,157.2z"/>
					<g>
						<path class="st45" d="M373.4,157.2c-1-3.7,1.9-5.4,1.9-5.4s-5.1,0-7.9,0l0,0c0,0-0.3,0-0.8,0c-0.5,0-0.8,0-0.8,0l0,0
							c0,0,0,0,0,0c2.7,0,7.8,0,7.8,0s-2.9,1.7-1.9,5.4c1,3.7,5,5.1,4.2,14.4c-0.8,9.3-6.3,13-6.3,13h0c0,0.1-1.6,0.3-3.8,0.3
							c0.2,0,0.4,0,0.6,0c0.1,0,0.2,0,0.3,0c0.1,0,0.2,0,0.3,0c2.4,0,4.4-0.1,4.4-0.3h0c0,0,5.5-3.7,6.3-13
							C378.4,162.3,374.3,160.9,373.4,157.2z"/>
					</g>
					<ellipse class="st46" cx="366.6" cy="151.7" rx="8.7" ry="0.6"/>
				</g>
				<path class="st44" d="M364.1,133.2v19c0.3,0.1,0.5,0.1,0.8,0.1l0.4-19.1H364.1z"/>
				<path class="st47" d="M365.4,133.2l1.2,19.1c0.3,0,0.5,0,0.8,0l-0.7-19.1H365.4z"/>
				<path class="st44" d="M367.4,133.2l1.2,19.1c0.3,0,0.5,0,0.8,0l-0.7-19H367.4z"/>
				<g>
					<g>
						<path class="st23" d="M350.4,148.8c2.2-0.3,4.4-0.3,6.6-0.5c2.7-0.3,5.4-1.1,7.7-2.6c2.1-1.5,3.9-3.6,4.8-6
							c0.3-0.9,0.5-1.8,0.6-2.7c0-0.1,0-0.3,0-0.4c-0.1-1.2-0.4-2.4-1.1-3.3c-0.9-1.1-2.3-1.6-3.6-1.6c-1.3,0-2.6,0.4-3.8,1.1
							c0.1-0.3,0.2-0.5,0.2-0.8c0-0.4-0.1-0.7-0.2-1c-0.3-0.6-0.8-1.2-1.3-1.5c-1.1-0.7-2.5-0.8-3.7-0.5c-2.3,0.5-4.4,1.9-5.9,3.8
							c-1.5,1.9-2.5,4.1-3.1,6.4c-0.3,1.1-0.6,2.3-0.8,3.5c-0.3,1.6-0.5,3.2-0.6,4.8c0,0.6,0,1.3-0.1,1.9c-0.1,0.5-0.1,0.9-0.1,1.4
							c0,0,0,0.1,0,0.1C347,149.6,348.8,149.1,350.4,148.8z"/>
					</g>
					<g>
						<path class="st23" d="M358.8,131.1c1,1.2,2.1,2.2,3.3,3.1c1.2,0.9,2.6,1.7,4,2.2c1.3,0.5,2.6,0.8,3.9,0.9c0-0.1,0-0.2,0-0.4
							c0-0.1,0-0.3,0-0.4c-0.1-1.2-0.4-2.4-1.1-3.3c-0.9-1.1-2.3-1.6-3.6-1.6c-1.3,0-2.6,0.4-3.8,1.1c0.1-0.3,0.2-0.5,0.2-0.8
							c0-0.4-0.1-0.7-0.2-1c-0.3-0.6-0.8-1.2-1.3-1.5c-0.9-0.6-2-0.7-3-0.6C357.6,129.6,358.2,130.4,358.8,131.1z"/>
						<path class="st23" d="M367.3,138.7c-1,0-2.1,0.3-2.9,1c-0.8,0.7-1.1,1.7-1.1,2.8c0,1.1,0.4,2.2,0.9,3.1
							c0.1,0.1,0.1,0.2,0.2,0.3c0.1-0.1,0.2-0.1,0.3-0.2c2.1-1.5,3.9-3.6,4.8-6c0.1-0.2,0.1-0.3,0.2-0.5
							C369,138.8,368.1,138.6,367.3,138.7z"/>
					</g>
					<g>
						<path class="st24" d="M377.6,137.3c-2.2-0.3-4.4-0.3-6.6-0.5c-2.7-0.3-5.4-1.1-7.7-2.6c-2.1-1.5-3.9-3.6-4.8-6
							c-0.3-0.9-0.5-1.8-0.6-2.7c0-0.1,0-0.3,0-0.4c0.1-1.2,0.4-2.4,1.1-3.3c0.9-1.1,2.3-1.6,3.6-1.6c1.3,0,2.6,0.4,3.8,1.1
							c-0.1-0.3-0.2-0.5-0.2-0.8c0-0.4,0.1-0.7,0.2-1c0.3-0.6,0.8-1.2,1.3-1.5c1.1-0.7,2.5-0.8,3.7-0.5c2.3,0.5,4.4,1.9,5.9,3.8
							c1.5,1.9,2.5,4.1,3.1,6.4c0.3,1.1,0.6,2.3,0.8,3.5c0.3,1.6,0.5,3.2,0.6,4.8c0,0.6,0,1.3,0.1,1.9c0.1,0.5,0.1,0.9,0.1,1.4
							c0,0,0,0.1,0,0.1C381,138,379.2,137.5,377.6,137.3z"/>
					</g>
					<g>
						<path class="st24" d="M379.1,152.3c-1.7-0.3-3.3-0.2-5-0.4c-2-0.3-4.1-0.8-5.8-2c-1.6-1.1-3-2.7-3.6-4.6
							c-0.2-0.7-0.4-1.4-0.5-2.1c0-0.1,0-0.2,0-0.3c0.1-0.9,0.3-1.8,0.8-2.5c0.7-0.8,1.7-1.2,2.7-1.2c1,0,2,0.3,2.9,0.8
							c-0.1-0.2-0.1-0.4-0.1-0.6c0-0.3,0.1-0.5,0.2-0.8c0.2-0.5,0.6-0.9,1-1.2c0.8-0.5,1.9-0.6,2.8-0.4c1.8,0.4,3.4,1.5,4.5,2.9
							c1.1,1.4,1.9,3.1,2.4,4.9c0.3,0.9,0.5,1.8,0.6,2.6c0.2,1.2,0.4,2.4,0.4,3.7c0,0.5,0,1,0.1,1.5c0,0.4,0.1,0.7,0.1,1.1
							c0,0,0,0.1,0,0.1C381.7,152.9,380.3,152.5,379.1,152.3z"/>
					</g>
				</g>
			</g>
			<rect x="297.6" y="184.1" class="st48" width="104.2" height="6.6"/>
			<rect x="209.3" y="100.8" class="st48" width="194.5" height="6.6"/>
		</g>
	</g>
</g>
</svg>
